<svg width="136" height="105" viewBox="0 0 136 105" fill="none" xmlns="http://www.w3.org/2000/svg">
<path d="M93.8296 88.2057C95.5757 88.164 97.3776 87.9791 99.1752 87.6344L99.814 87.5127L99.5383 77.3847L99.8577 73.2061L87.6202 73.498L88.0088 87.7766L88.6534 87.8677C90.348 88.129 92.0835 88.2473 93.8296 88.2057Z" fill="black"/>
<path d="M94.9591 101.224C98.0184 101.151 100.326 100.883 102.045 100.416C103.157 100.106 103.883 98.8107 103.712 97.4658C103.161 93.1127 101.001 91.6557 99.913 91.2024L99.7856 86.5197L99.0456 86.7681C97.3073 87.0935 94.1175 87.3116 94.1175 87.3116C92.446 87.3514 90.3528 87.2594 88.7333 87.0141L87.9833 86.8899L88.2898 98.1532C88.3164 99.1288 88.8185 100.022 89.5758 100.412C90.3635 100.819 91.5863 101.305 92.9444 101.272C93.1085 101.269 93.3174 101.264 93.5861 101.257C93.9592 101.248 94.4218 101.237 94.9591 101.224Z" fill="black"/>
<path d="M88.3887 74.3849L88.7324 87.0139C92.1658 87.5178 95.5974 87.4004 99.0447 86.768L98.7888 77.3671L99.0293 74.1311L88.3887 74.3849Z" fill="white"/>
<path d="M88.7336 86.9959L89.0358 98.0996C89.0532 98.7381 89.3825 99.316 89.8673 99.5706C90.5794 99.9441 91.6967 100.397 92.9056 100.368C94.2338 100.336 98.7605 100.406 101.858 99.5508C102.599 99.3379 103.084 98.4922 102.97 97.5897C102.306 92.4228 99.1854 91.8761 99.1854 91.8761L99.0464 86.7677C95.5991 87.4002 92.1675 87.5175 88.7336 86.9959Z" fill="#FFF1F3"/>
<path d="M100.312 100.351C100.52 100.346 100.679 100.147 100.673 99.8987C100.558 95.695 99.1552 94.0778 99.1085 94.0079C98.9544 93.8341 98.7156 93.8398 98.5861 94.0204C98.4417 94.2013 98.4495 94.4851 98.603 94.6412C98.6189 94.6763 99.838 96.1204 99.9408 99.8985C99.9326 100.147 100.103 100.356 100.312 100.351Z" fill="black"/>
<path d="M95.5894 100.766C95.7983 100.761 95.9571 100.562 95.9504 100.313C95.836 96.1096 94.433 94.4925 94.3863 94.4226C94.2322 94.2488 93.9935 94.2545 93.864 94.4351C93.7196 94.616 93.7273 94.8998 93.8809 95.0559C93.8963 95.0732 95.1158 96.5351 95.2186 100.313C95.211 100.58 95.3804 100.771 95.5894 100.766Z" fill="black"/>
<path opacity="0.2" d="M87.8676 82.6505L99.6549 81.7304L99.4917 75.7351L87.687 76.0167L87.8676 82.6505Z" fill="#0B0E2A"/>
<path d="M86.522 88.6418C88.2681 88.6001 90.07 88.4152 91.8675 88.0705L92.5064 87.9488L92.2307 77.8208L92.55 73.6422L80.3126 73.9341L80.7012 88.2127L81.3458 88.3038C83.0404 88.5651 84.7759 88.6834 86.522 88.6418Z" fill="black"/>
<path d="M87.6533 101.66C90.7126 101.587 93.02 101.319 94.7396 100.852C95.8512 100.542 96.5775 99.2465 96.4065 97.9016C95.855 93.5485 93.6948 92.0914 92.6072 91.6382L92.4798 86.9555L91.7399 87.2039C90.0015 87.5293 86.8117 87.7474 86.8117 87.7474C85.1402 87.7872 83.047 87.6952 81.4275 87.4498L80.6775 87.3257L80.984 98.589C81.0106 99.5645 81.5128 100.458 82.2701 100.848C83.0577 101.255 84.2805 101.741 85.6386 101.708C85.8027 101.704 86.0117 101.699 86.2803 101.693C86.6534 101.684 87.116 101.673 87.6533 101.66Z" fill="black"/>
<path d="M81.083 74.821L81.4267 87.45C84.8602 87.9538 88.2917 87.8364 91.739 87.204L91.4832 77.8032L91.7236 74.5671L81.083 74.821Z" fill="white"/>
<path d="M81.4261 87.4321L81.7283 98.5357C81.7457 99.1743 82.075 99.7521 82.5598 100.007C83.2719 100.38 84.3892 100.833 85.5981 100.804C86.9263 100.772 91.453 100.842 94.5508 99.987C95.2917 99.7741 95.7764 98.9283 95.6623 98.0259C94.999 92.859 91.8779 92.3122 91.8779 92.3122L91.7389 87.2039C88.2916 87.8363 84.86 87.9537 81.4261 87.4321Z" fill="#FFF1F3"/>
<path d="M93.0049 100.787C93.2138 100.782 93.3727 100.583 93.3659 100.335C93.2515 96.131 91.8485 94.5138 91.8018 94.444C91.6478 94.2701 91.409 94.2758 91.2795 94.4564C91.1351 94.6374 91.1428 94.9212 91.2964 95.0772C91.3123 95.1123 92.5313 96.5564 92.6342 100.335C92.626 100.583 92.796 100.792 93.0049 100.787Z" fill="black"/>
<path d="M88.2825 101.201C88.4914 101.196 88.6503 100.997 88.6435 100.749C88.5291 96.5454 87.1261 94.9282 87.0794 94.8583C86.9254 94.6845 86.6866 94.6902 86.5571 94.8708C86.4127 95.0517 86.4204 95.3355 86.574 95.4916C86.5894 95.509 87.8089 96.9708 87.9117 100.749C87.9041 101.015 88.0735 101.206 88.2825 101.201Z" fill="black"/>
<path opacity="0.2" d="M80.5619 83.0866L92.3492 82.1665L92.186 76.1712L80.3813 76.4528L80.5619 83.0866Z" fill="#0B0E2A"/>
<path d="M51.9917 89.6854C53.7378 89.6437 55.5397 89.4587 57.3373 89.1141L57.9761 88.9924L57.7004 78.8643L58.0198 74.6857L45.7823 74.9776L46.1709 89.2562L46.8155 89.3474C48.5101 89.6087 50.2456 89.727 51.9917 89.6854Z" fill="black"/>
<path d="M53.123 102.704C56.1824 102.631 58.4898 102.363 60.2093 101.896C61.3209 101.585 62.0472 100.29 61.8762 98.9453C61.3247 94.5922 59.1645 93.1351 58.0769 92.6818L57.9495 87.9991L57.2096 88.2475C55.4712 88.5729 52.2814 88.791 52.2814 88.791C50.6099 88.8309 48.5167 88.7388 46.8973 88.4935L46.1472 88.3694L46.4538 99.6326C46.4803 100.608 46.9825 101.501 47.7398 101.892C48.5274 102.299 49.7502 102.784 51.1083 102.752C51.2725 102.748 51.4814 102.743 51.75 102.737C52.1231 102.728 52.5857 102.717 53.123 102.704Z" fill="black"/>
<path d="M46.5526 75.8646L46.8963 88.4936C50.3298 88.9974 53.7613 88.8801 57.2086 88.2476L56.9528 78.8468L57.1932 75.6108L46.5526 75.8646Z" fill="white"/>
<path d="M46.8958 88.4757L47.198 99.5794C47.2154 100.218 47.5447 100.796 48.0295 101.05C48.7416 101.424 49.859 101.877 51.0678 101.848C52.396 101.816 56.9227 101.885 60.0206 101.031C60.7614 100.818 61.2462 99.972 61.132 99.0695C60.4687 93.9026 57.3477 93.3559 57.3477 93.3559L57.2086 88.2475C53.7613 88.88 50.3298 88.9973 46.8958 88.4757Z" fill="#FFF1F3"/>
<path d="M58.4745 101.831C58.6834 101.826 58.8423 101.627 58.8355 101.378C58.7211 97.1746 57.3181 95.5574 57.2714 95.4875C57.1174 95.3137 56.8786 95.3194 56.7491 95.5C56.6047 95.6809 56.6124 95.9647 56.766 96.1208C56.7819 96.1559 58.0009 97.6 58.1038 101.378C58.0956 101.627 58.2656 101.836 58.4745 101.831Z" fill="black"/>
<path d="M53.7538 102.245C53.9627 102.24 54.1216 102.041 54.1148 101.793C54.0004 97.5889 52.5974 95.9717 52.5507 95.9018C52.3967 95.728 52.1579 95.7337 52.0284 95.9143C51.884 96.0952 51.8917 96.379 52.0453 96.5351C52.0607 96.5525 53.2802 98.0143 53.3831 101.792C53.3754 102.059 53.5449 102.25 53.7538 102.245Z" fill="black"/>
<path opacity="0.2" d="M46.0315 84.1302L57.8188 83.2101L57.6556 77.2148L45.8509 77.4964L46.0315 84.1302Z" fill="#0B0E2A"/>
<path d="M5.9569 17.8597C6.4551 20.9908 7.46108 23.6739 8.85747 25.598C9.28562 26.1948 10.3859 27.2522 12.2562 28.9158L12.9507 29.5171L13.4505 28.6892C16.0449 24.3785 19.964 21.0512 25.0954 18.8012L25.9366 18.438L25.3799 17.5167C25.2736 17.3327 25.117 17.0317 24.938 16.704C23.6627 14.2691 21.017 9.22888 17.1001 10.621C16.8759 10.5813 16.3522 10.1555 15.9882 9.89169C14.7953 8.98003 13.0059 7.61256 10.844 8.53587C8.60073 9.50453 8.55121 11.1837 8.63732 11.8849C7.63898 12.4025 5.45125 13.8933 5.80955 16.8004C5.85679 17.1702 5.90684 17.515 5.9569 17.8597Z" fill="black"/>
<path d="M25.1431 17.2839C25.2321 17.4187 25.3212 17.5536 25.4446 17.7295C25.4618 17.75 25.4618 17.75 25.4789 17.7705C26.7538 19.6349 29.5159 23.6743 31.9562 27.2154L32.3811 27.8368L31.7608 28.3214C29.2143 24.6249 26.1538 20.1722 24.8039 18.1612L24.3908 18.4374L31.5473 28.4653L32.3952 27.8251L32.4842 27.9599C34.0574 30.2376 35.9181 32.9725 36.3431 33.594L36.4869 33.8226L37.5333 38.0074L35.3336 51.0534L34.1046 49.8138C31.0065 46.684 26.2394 42.1595 21.6238 37.7874C18.0449 34.397 15.7122 32.2667 13.0093 29.6087L12.3143 28.8643L12.4319 27.8933C14.596 22.5558 18.3769 19.3199 24.4165 17.6131L25.1946 17.3454L25.1431 17.2839Z" fill="black"/>
<path d="M11.455 9.62796C9.80857 10.3689 9.6447 11.4841 9.70949 12.1314C9.74022 12.4245 9.57146 12.7359 9.27712 12.8974C8.3556 13.3927 6.58535 14.6412 6.78931 16.9365C7.07164 20.0378 7.87943 22.9117 9.36114 24.9661C9.76903 25.5387 10.9175 26.5966 12.4675 27.9348C15.1343 23.6819 19.0517 20.2102 24.4991 17.7107C24.4713 17.6489 24.4295 17.5989 24.4016 17.5372C23.5656 16.1114 21.1568 9.9862 17.409 11.4663C16.2216 11.9292 14.261 8.36246 11.455 9.62796Z" fill="#FFF1F3"/>
<path d="M25.4439 17.7298L24.7892 18.1733C26.1531 20.1725 29.2137 24.6252 31.7462 28.3334L32.3665 27.8489L31.9415 27.2274C29.4981 23.6541 26.7219 19.6264 25.4643 17.7826C25.4611 17.7503 25.4439 17.7298 25.4439 17.7298Z" fill="black"/>
<path d="M24.4192 17.6457C18.3343 19.3555 14.4773 22.8994 12.4345 27.9259C18.7258 34.0711 29.1513 43.7 34.6073 49.2182L36.5482 37.7153L35.6223 33.988C35.2317 33.4076 33.6414 31.1094 31.7635 28.3539C29.1998 24.637 26.1189 20.1315 24.755 18.1323C24.6316 17.9564 24.5082 17.7805 24.4192 17.6457Z" fill="white"/>
<path d="M24.773 18.153C23.2484 19.0109 23.4043 21.8472 25.1324 24.6233C26.9325 27.5138 29.7733 29.2535 31.4915 28.5128C31.5928 28.4628 31.6942 28.4128 31.7783 28.3424C29.2146 24.6254 26.1198 20.1317 24.773 18.153Z" fill="black"/>
<path d="M41.1104 90.2476C42.8564 90.2059 44.6583 90.0209 46.4559 89.6763L47.0947 89.5546L46.8191 79.4265L47.1384 75.2479L34.9009 75.5398L35.2896 89.8184L35.9342 89.9096C37.6288 90.1709 39.3643 90.2892 41.1104 90.2476Z" fill="black"/>
<path d="M42.2417 103.266C45.301 103.193 47.6084 102.925 49.328 102.458C50.4395 102.147 51.1659 100.852 50.9949 99.5073C50.4433 95.1542 48.2831 93.6972 47.1956 93.2439L47.0681 88.5612L46.3282 88.8096C44.5899 89.135 41.4 89.3531 41.4 89.3531C39.7286 89.393 37.6354 89.3009 36.0159 89.0556L35.2659 88.9314L35.5724 100.195C35.599 101.17 36.1011 102.063 36.8584 102.454C37.6461 102.861 38.8689 103.346 40.2269 103.314C40.3911 103.31 40.6 103.305 40.8687 103.299C41.2418 103.29 41.7044 103.279 42.2417 103.266Z" fill="black"/>
<path d="M35.6712 76.4267L36.015 89.0558C39.4484 89.5596 42.8799 89.4422 46.3273 88.8098L46.0714 79.4089L46.3119 76.1729L35.6712 76.4267Z" fill="white"/>
<path d="M36.0144 89.0378L36.3166 100.141C36.3339 100.78 36.6633 101.358 37.1481 101.613C37.8601 101.986 38.9775 102.439 40.1863 102.41C41.5145 102.378 46.0413 102.448 49.1391 101.593C49.88 101.38 50.3647 100.534 50.2505 99.6316C49.5872 94.4647 46.4662 93.918 46.4662 93.918L46.3272 88.8096C42.8798 89.442 39.4483 89.5594 36.0144 89.0378Z" fill="#FFF1F3"/>
<path d="M47.5923 102.393C47.8012 102.388 47.9601 102.189 47.9533 101.941C47.8389 97.737 46.4359 96.1198 46.3892 96.0499C46.2352 95.8761 45.9964 95.8818 45.8669 96.0624C45.7225 96.2433 45.7302 96.5271 45.8838 96.6832C45.8997 96.7183 47.1187 98.1624 47.2216 101.94C47.2134 102.189 47.3834 102.398 47.5923 102.393Z" fill="black"/>
<path d="M42.8716 102.807C43.0805 102.802 43.2394 102.603 43.2326 102.355C43.1182 98.151 41.7152 96.5338 41.6685 96.4639C41.5145 96.2901 41.2757 96.2958 41.1462 96.4764C41.0018 96.6573 41.0095 96.9411 41.1631 97.0972C41.1785 97.1146 42.398 98.5764 42.5009 102.354C42.4932 102.621 42.6627 102.812 42.8716 102.807Z" fill="black"/>
<path opacity="0.2" d="M35.1484 84.6924L46.9358 83.7722L46.7726 77.777L34.9679 78.0586L35.1484 84.6924Z" fill="#0B0E2A"/>
<path d="M106.421 25.6779L106.351 25.2263C105.964 23.0712 104.815 19.3481 103.967 16.6253C103.69 15.7486 103.452 14.9768 103.292 14.4303C103.192 14.0968 103.204 14.0154 101.838 11.1514C98.7977 8.06797 97.0232 9.44566 96.1206 9.4938C93.6704 10.5851 94.9217 9.46065 92.5939 12.5324C92.0716 14.2554 91.5681 15.5518 90.9962 16.9315C90.0625 19.1522 84.6264 33.054 84.389 33.9028C84.2836 34.2604 84.0463 35.1093 88.1313 39.3173L88.6347 39.8287L106.421 25.6779Z" fill="black"/>
<path d="M105.556 25.3817C105.059 22.5741 103.176 16.8922 102.513 14.663C101.849 12.4338 99.1081 9.93654 97.7205 10.0154C95.0128 10.1598 93.688 12.5855 91.7358 17.2201C90.7528 19.5468 85.3938 33.3051 85.1642 34.1042C84.9486 34.8846 88.7276 38.7834 88.7276 38.7834L105.556 25.3817Z" fill="black"/>
<path d="M102.17 25.9958C101.702 22.974 100.759 16.6268 100.42 15.5216C100.037 14.2806 99.7358 12.3816 98.6673 12.4783C97.5989 12.5749 96.3816 17.2904 95.9303 18.8391C95.496 20.3844 93.1654 27.8372 92.666 29.5879C92.1666 31.3385 101.896 30.0615 101.896 30.0615L102.17 25.9958Z" fill="white"/>
<path d="M79.8788 24.3354C72.8036 25.1633 67.5126 25.6027 63.2461 25.8715C59.4388 26.1047 56.4589 26.1746 53.7863 26.2523C50.0837 26.3483 47.0381 26.4206 43.3931 26.8956C42.8907 26.9519 42.3672 27.028 41.8224 27.1239C36.3919 27.9494 33.0509 28.9469 30.6928 30.4423C28.2273 31.9988 26.835 34.1261 26.1617 37.3325C25.8999 38.5804 25.6634 39.9228 25.4736 41.3396C25.4558 41.4546 25.4388 41.5886 25.421 41.7035C24.8766 46.0485 24.6651 51.1054 24.8484 56.1671C24.9387 58.6598 25.1173 61.1685 25.404 63.6351C26.4433 72.9528 28.1989 78.4339 31.0083 80.9234C31.0761 80.9781 31.1219 81.0336 31.189 81.0693C31.6408 81.434 32.1125 81.7408 32.6252 81.97C35.0099 83.0268 38.4759 83.6634 43.5515 83.9368C50.473 84.3149 60.3742 84.0134 73.0136 83.022C90.595 81.642 101.067 80.7483 112.279 78.4939C117.874 77.3576 122.184 75.277 125.059 72.2958C127.743 69.5119 129.105 65.9567 129.006 61.9971C128.988 60.8926 128.95 59.8651 128.915 58.8946C128.891 58.2286 128.868 57.5816 128.845 56.9537C128.784 55.2791 128.714 53.9479 128.668 52.673L128.631 51.6645C128.598 50.7321 128.455 48.6032 128.071 45.8924C127.222 39.9975 125.134 31.3846 120.031 26.7298C116.72 23.7058 112.592 22.3501 106.204 22.1814C100.102 22.0214 92.1731 22.8992 79.8788 24.3354Z" fill="black"/>
<path d="M79.9976 25.2266C77.4209 25.5295 75.0619 25.7865 72.9204 25.9974C55.3296 27.7207 50.8608 26.6441 41.9844 27.9945C32.0177 29.5178 28.3698 31.7269 27.1742 37.4672C25.9568 43.2084 25.2516 52.799 26.4302 63.5407C27.6087 74.2825 29.7557 79.6731 33.0995 81.1716C36.4432 82.67 44.5305 84.3586 72.9363 82.1293C76.7408 81.82 80.262 81.559 83.519 81.2696C94.9093 80.3044 103.384 79.3686 112.07 77.6059C123.238 75.3531 128.173 69.3248 127.996 62.0146C127.975 60.834 127.937 59.7684 127.903 58.836C127.813 55.7335 127.697 53.7561 127.623 51.701C127.546 50.1985 127.39 48.2988 127.118 46.2318C126.229 39.8619 124.07 31.7089 119.306 27.3466C112.934 21.5565 103.668 22.4447 79.9976 25.2266Z" fill="white"/>
<path d="M43.8389 27.7368C43.8389 27.7368 47.3002 31.2697 53.2572 31.0539C57.3089 30.9071 58.6933 30.3806 61.2176 28.6315L62.3143 26.8198C56.7111 27.118 49.1217 27.069 43.8389 27.7368Z" fill="black"/>
<path d="M53.7645 26.2532C56.0428 26.1897 60.0507 26.0445 63.0935 25.8962L62.3156 26.8199C54.545 27.2157 49.3201 27.062 43.8403 27.7368L43.6765 26.8472C47.1915 26.4151 50.1713 26.3452 53.7645 26.2532Z" fill="black"/>
<path d="M26.523 41.2825L25.4936 41.3198C24.9082 45.7425 24.6803 50.9524 24.8685 56.1473C24.9588 58.64 25.1374 61.1487 25.4241 63.6153C26.4703 73.1233 28.2929 78.6401 31.2091 81.0495L32.853 81.0281C29.6995 79.3322 27.5957 73.9209 26.4295 63.5217C25.4814 54.9056 25.7442 47.0269 26.523 41.2825Z" fill="black"/>
<path d="M127.881 58.8177L127.574 58.8101C127.683 58.8061 127.794 58.8209 127.881 58.8177Z" fill="#FFF1F3"/>
<path d="M127.095 46.2134C127.052 46.2341 127.009 46.2737 126.967 46.3134L127.097 46.2515C127.097 46.2515 127.096 46.2325 127.095 46.2134Z" fill="#FFF1F3"/>
<path d="M78.8851 25.3432C77.5685 25.9244 75.2157 26.9623 75.3943 31.8908C75.7065 40.5108 80.2608 43.947 80.2608 43.947L85.6631 45.3709C85.6631 45.3709 107.199 52.6695 115.476 51.1122C121.596 49.9568 125.024 47.7177 127.097 46.2136C126.208 39.8437 124.049 31.6907 119.285 27.3284C112.936 21.5565 103.645 22.3504 78.8851 25.3432Z" fill="black"/>
<path d="M109.142 59.0772C102.543 59.7164 83.0918 69.4144 83.1601 76.7476C83.177 78.4238 83.2971 79.9247 83.4987 81.2511C94.889 80.2859 103.364 79.3502 112.05 77.5874C123.218 75.3347 128.153 69.3064 127.976 61.9961C127.955 60.8156 127.917 59.7499 127.883 58.8175C123.401 58.5798 114.759 58.5498 109.142 59.0772Z" fill="black"/>
<path d="M103.932 50.2917L99.2487 51.1663L101.679 61.3483C104.682 60.0963 107.371 59.2748 109.141 59.0964C114.757 58.55 123.399 58.5989 127.881 58.8367C127.791 55.7342 127.675 53.7568 127.601 51.7017C127.525 50.1992 127.368 48.2995 127.096 46.2325C125.023 47.7366 121.618 49.975 115.475 51.1311C112.686 51.6323 108.393 51.159 103.932 50.2917Z" fill="#FFF1F3"/>
<path d="M119.647 63.4889C120.456 63.6233 127.653 64.6723 128.896 61.2367C130.762 56.1085 131.496 52.2478 131.146 49.4355C130.571 44.7515 128.332 43.1219 126.562 42.5724C126.501 42.5535 126.424 42.5298 126.363 42.5109C122.214 41.3898 119.455 43.9712 117.449 50.908C115.048 59.2078 119.07 63.1262 119.253 63.2998L119.425 63.4532L119.647 63.4889Z" fill="#0B0E2A"/>
<path d="M126.19 43.2248C123.386 42.4546 120.469 43.1679 118.17 51.1155C115.871 59.063 119.763 62.7409 119.763 62.7409C119.763 62.7409 127.136 63.9281 128.212 60.9576C129.287 57.9872 130.877 53.1238 130.429 49.497C129.973 45.9009 128.471 43.8493 126.19 43.2248Z" fill="white"/>
<path d="M124.316 45.7396C123.231 45.3527 121.462 46.5225 120.95 49.1002C120.437 51.6779 121.809 53.0646 121.809 53.0646C121.809 53.0646 124.368 53.7826 125.353 50.6671C126.337 47.5516 125.3 46.0782 124.316 45.7396Z" fill="#0B0E2A"/>
<path d="M103.205 65.2453C103.297 65.2737 103.388 65.3021 103.48 65.3305C105.959 66.0166 108.442 65.6527 110.506 64.3241C112.325 63.1531 114.68 60.6466 115.526 55.4191C116.535 49.1736 116.792 41.7274 109.819 39.5627L109.773 39.5485C106.136 38.4365 99.7737 41.0006 97.3056 48.7287C95.908 53.101 96.0608 57.2871 97.7392 60.5115C98.9453 62.8384 100.901 64.53 103.205 65.2453Z" fill="#0B0E2A"/>
<path d="M109.565 40.2682C106.066 39.1988 100.244 41.9642 97.9996 48.9773C95.3105 57.3544 98.9093 63.3109 103.654 64.6167C108.398 65.9225 113.513 63.1879 114.783 55.2883C116.054 47.3887 115.205 41.9855 109.565 40.2682Z" fill="white"/>
<path d="M108.31 43.6091C106.808 43.6142 105.781 45.5145 106.19 48.7485C106.6 51.9826 108.349 53.0285 109.498 52.9449C110.631 52.8613 111.986 51.3424 111.488 47.7261C110.99 44.1098 109.412 43.6052 108.31 43.6091Z" fill="#0B0E2A"/>
<path d="M102.211 37.8686C102.27 37.9158 102.337 37.951 102.383 37.9911C102.88 38.3326 103.763 38.3466 105.536 38.3627C106.476 38.3741 107.536 38.3686 108.44 38.4582C109.191 38.5317 110.031 38.7965 110.866 39.0424C112.479 39.5368 114.004 40.0006 115.023 39.1698C115.597 38.6997 115.908 38.027 115.889 37.2773C115.856 36.1987 115.174 35.0843 114.014 34.2173C113.968 34.1772 113.928 34.156 113.882 34.1159C112.143 32.8958 111.238 32.6453 110.197 32.3551C110.073 32.3223 109.937 32.2825 109.813 32.2498C107.827 31.6879 103.512 31.7668 101.946 33.9665C100.509 35.9766 101.301 37.1972 102.211 37.8686Z" fill="black"/>
<path d="M109.584 32.8843C107.92 32.4114 103.919 32.4302 102.554 34.3336C101.189 36.237 102.258 37.1043 102.835 37.4882C103.412 37.8721 106.313 37.5963 108.532 37.8145C110.751 38.0326 113.414 39.6096 114.525 38.698C115.657 37.7817 115.269 35.9378 113.417 34.6423C111.586 33.342 110.789 33.2284 109.584 32.8843Z" fill="#FFF1F3"/>
<path d="M128.871 43.5069C129.796 43.4929 130.647 43.0139 131.197 42.1838C131.843 41.1944 131.917 39.971 131.384 39.1391C130.484 37.7396 129.566 36.6461 127.8 35.5606C126.235 34.6124 123.857 34.1956 122.664 34.202C122.617 34.2055 122.586 34.2079 122.539 34.2114C120.943 34.2757 117.923 35.0695 117.941 37.6145C117.951 39.745 120.311 40.1216 122.032 40.3939C122.701 40.4959 123.323 40.6015 123.731 40.7647C124.287 40.9998 124.862 41.441 125.47 41.8937C126.502 42.6881 127.566 43.494 128.84 43.5092L128.871 43.5069Z" fill="black"/>
<path d="M127.363 36.0917C125.864 35.18 123.475 34.8194 122.551 34.8472C121.627 34.8749 118.638 35.3204 118.662 37.602C118.687 39.8836 122.419 39.4931 124.038 40.1744C125.656 40.8557 127.161 42.8464 128.842 42.8587C130.508 42.8722 131.51 40.652 130.738 39.4506C129.895 38.1576 129.077 37.1256 127.363 36.0917Z" fill="#FFF1F3"/>
<path d="M113.701 67.368C114.327 67.6342 115.382 67.5313 116.516 67.0994C117.336 66.7946 119.33 65.8431 120.254 63.8124C121.042 62.072 120.173 60.4689 117.931 59.5159C117.643 59.3935 117.418 59.3272 117.331 59.2899C116.448 58.9293 112.287 57.7119 111.321 59.7682C110.531 61.4495 111.073 63.0149 111.44 64.0562C111.905 65.4004 112.511 66.8623 113.701 67.368Z" fill="#0B0E2A"/>
<path d="M117.102 59.8743C116.062 59.4324 112.587 58.5789 111.91 60.0183C111.234 61.4578 111.708 62.8489 112.049 63.8501C112.39 64.8512 112.942 66.3629 113.943 66.7888C114.945 67.2147 118.464 66.1855 119.654 63.5568C120.863 60.9508 117.102 59.8743 117.102 59.8743Z" fill="#4A423E"/>
<path d="M116.995 60.1632C116.327 59.9227 114.506 59.1923 114.148 59.9543C113.79 60.7164 115.397 61.8058 116.089 62.0275C116.781 62.2491 118.642 62.2856 118.966 61.5962C119.29 60.9067 117.57 60.3786 116.995 60.1632Z" fill="#FFF1F3"/>
<path d="M110.981 69.2219C111.126 69.1704 111.282 69.2047 111.406 69.3042C113.876 71.5464 116.316 69.608 116.413 69.5199C116.596 69.3656 116.86 69.3976 117.011 69.5771C117.162 69.7566 117.124 70.0207 116.941 70.1751C116.914 70.2026 113.838 72.6705 110.824 69.94C110.647 69.788 110.647 69.5193 110.803 69.3386C110.841 69.2894 110.916 69.2448 110.981 69.2219Z" fill="black"/>
</svg>
