<svg width="231" height="207" viewBox="0 0 231 207" fill="none" xmlns="http://www.w3.org/2000/svg">
<path d="M120.946 160.933C124.395 161.114 127.974 161.065 131.568 160.751L132.845 160.64L133.728 143.807L134.946 136.924L110.772 135.656L109.527 159.388L110.786 159.631C114.091 160.307 117.497 160.752 120.946 160.933Z" fill="#884E1E"/>
<path d="M121.341 182.682C127.385 182.999 131.973 182.884 135.43 182.356C137.665 182.001 139.28 179.957 139.132 177.702C138.658 170.405 134.603 167.68 132.522 166.773L132.93 158.99L131.436 159.296C127.962 159.587 121.641 159.492 121.641 159.492C118.339 159.318 114.225 158.866 111.065 158.227L109.604 157.914L108.622 176.634C108.537 178.256 109.401 179.809 110.84 180.564C112.336 181.352 114.679 182.332 117.362 182.473C117.686 182.49 118.099 182.512 118.629 182.539C119.366 182.578 120.28 182.626 121.341 182.682Z" fill="#D5C18F"/>
<path d="M112.166 137.237L111.065 158.227C117.765 159.554 124.548 159.851 131.436 159.296L132.255 143.671L133.185 138.34L112.166 137.237Z" fill="#FBB26F"/>
<path d="M111.068 158.198L110.1 176.652C110.044 177.714 110.612 178.719 111.533 179.211C112.884 179.932 115.024 180.842 117.412 180.967C120.036 181.105 128.953 181.868 135.182 180.894C136.673 180.647 137.748 179.314 137.65 177.802C137.07 169.139 130.992 167.786 130.992 167.786L131.437 159.295C124.55 159.851 117.766 159.554 111.068 158.198Z" fill="#FEF8DB"/>
<path d="M132.019 182C132.432 182.021 132.773 181.714 132.795 181.301C133.161 174.314 130.622 171.432 130.54 171.31C130.261 170.999 129.789 170.975 129.508 171.255C129.198 171.535 129.173 172.007 129.454 172.287C129.48 172.348 131.681 174.917 131.352 181.196C131.301 181.607 131.606 181.978 132.019 182Z" fill="#D5C18F"/>
<path d="M122.648 182.011C123.061 182.033 123.402 181.726 123.424 181.313C123.79 174.326 121.251 171.444 121.169 171.321C120.89 171.011 120.418 170.986 120.137 171.267C119.827 171.546 119.802 172.018 120.083 172.299C120.111 172.33 122.31 174.928 121.981 181.208C121.928 181.648 122.235 181.99 122.648 182.011Z" fill="#D5C18F"/>
<path opacity="0.2" d="M109.974 150.868L133.348 151.03L133.871 141.065L110.552 139.843L109.974 150.868Z" fill="#0B0E2A"/>
<path d="M106.48 160.61C109.929 160.791 113.509 160.742 117.102 160.428L118.379 160.318L119.262 143.485L120.48 136.602L96.3061 135.334L95.0616 159.066L96.32 159.309C99.6249 159.985 103.031 160.429 106.48 160.61Z" fill="#884E1E"/>
<path d="M106.877 182.359C112.921 182.676 117.509 182.562 120.966 182.033C123.201 181.678 124.816 179.634 124.668 177.379C124.194 170.082 120.139 167.357 118.058 166.45L118.466 158.667L116.972 158.973C113.498 159.264 107.177 159.169 107.177 159.169C103.875 158.996 99.7604 158.543 96.6013 157.905L95.1396 157.591L94.1579 176.311C94.0728 177.933 94.9374 179.486 96.3758 180.241C97.8717 181.029 100.215 182.009 102.897 182.15C103.222 182.167 103.634 182.189 104.165 182.216C104.902 182.255 105.816 182.303 106.877 182.359Z" fill="#D5C18F"/>
<path d="M97.7015 136.915L96.6007 157.905C103.301 159.232 110.084 159.528 116.972 158.973L117.791 143.349L118.721 138.017L97.7015 136.915Z" fill="#FBB26F"/>
<path d="M96.6021 157.875L95.6342 176.33C95.5786 177.391 96.1467 178.396 97.0668 178.888C98.4184 179.609 100.558 180.52 102.946 180.645C105.57 180.783 114.487 181.546 120.716 180.572C122.207 180.325 123.282 178.992 123.184 177.479C122.604 168.817 116.526 167.463 116.526 167.463L116.971 158.973C110.084 159.528 103.3 159.231 96.6021 157.875Z" fill="#FEF8DB"/>
<path d="M117.556 181.677C117.969 181.699 118.31 181.392 118.332 180.979C118.698 173.992 116.159 171.11 116.077 170.987C115.797 170.677 115.326 170.652 115.045 170.933C114.735 171.212 114.71 171.684 114.991 171.965C115.017 172.025 117.218 174.594 116.889 180.874C116.837 181.285 117.143 181.656 117.556 181.677Z" fill="#D5C18F"/>
<path d="M108.184 181.688C108.596 181.71 108.938 181.403 108.959 180.99C109.326 174.003 106.787 171.121 106.705 170.998C106.425 170.688 105.954 170.663 105.673 170.944C105.362 171.223 105.338 171.695 105.619 171.976C105.647 172.007 107.846 174.605 107.516 180.885C107.464 181.325 107.771 181.667 108.184 181.688Z" fill="#D5C18F"/>
<path opacity="0.2" d="M95.5078 150.546L118.882 150.707L119.405 140.743L96.086 139.52L95.5078 150.546Z" fill="#0B0E2A"/>
<path d="M72.2537 159.148C75.7029 159.328 79.2824 159.28 82.8758 158.966L84.1527 158.855L85.0355 142.022L86.2538 135.139L62.0799 133.871L60.8354 157.603L62.0938 157.846C65.3988 158.522 68.8045 158.967 72.2537 159.148Z" fill="#884E1E"/>
<path d="M72.6511 180.896C78.6946 181.213 83.2826 181.099 86.7394 180.571C88.9751 180.215 90.5899 178.171 90.4421 175.917C89.9675 168.62 85.9127 165.894 83.8319 164.987L84.2401 157.204L82.746 157.51C79.272 157.801 72.9509 157.706 72.9509 157.706C69.6491 157.533 65.5342 157.08 62.3751 156.442L60.9134 156.129L59.9317 174.849C59.8466 176.47 60.7112 178.023 62.1496 178.778C63.6455 179.566 65.9886 180.547 68.6713 180.687C68.9956 180.704 69.4083 180.726 69.9389 180.754C70.6759 180.792 71.5898 180.84 72.6511 180.896Z" fill="#D5C18F"/>
<path d="M63.4754 135.452L62.3746 156.442C69.0746 157.769 75.8582 158.066 82.7455 157.51L83.5649 141.886L84.4949 136.554L63.4754 135.452Z" fill="#FBB26F"/>
<path d="M62.3759 156.412L61.408 174.867C61.3524 175.928 61.9205 176.934 62.8406 177.425C64.1922 178.147 66.332 179.057 68.7199 179.182C71.3436 179.32 80.2607 180.083 86.4901 179.109C87.9811 178.862 89.0561 177.529 88.9581 176.016C88.3777 167.354 82.2999 166 82.2999 166L82.7452 157.51C75.8579 158.065 69.0743 157.769 62.3759 156.412Z" fill="#FEF8DB"/>
<path d="M83.3266 180.214C83.7393 180.236 84.0806 179.929 84.1023 179.516C84.4687 172.529 81.9298 169.647 81.8475 169.524C81.5682 169.214 81.0965 169.189 80.8157 169.47C80.5054 169.749 80.4807 170.221 80.7616 170.502C80.788 170.562 82.9886 173.131 82.6593 179.411C82.6082 179.822 82.9139 180.193 83.3266 180.214Z" fill="#D5C18F"/>
<path d="M73.9558 180.225C74.3685 180.247 74.7098 179.94 74.7314 179.527C75.0978 172.54 72.5589 169.658 72.4767 169.535C72.1973 169.225 71.7256 169.2 71.4448 169.481C71.1346 169.76 71.1098 170.232 71.3907 170.513C71.4187 170.544 73.6177 173.142 73.2884 179.422C73.2358 179.862 73.543 180.204 73.9558 180.225Z" fill="#D5C18F"/>
<path opacity="0.2" d="M61.2817 149.083L84.6563 149.245L85.1788 139.28L61.8599 138.057L61.2817 149.083Z" fill="#0B0E2A"/>
<path d="M50.7136 158.522C54.1628 158.703 57.7422 158.654 61.3356 158.34L62.6126 158.23L63.4954 141.396L64.7136 134.513L40.5398 133.245L39.2952 156.977L40.5536 157.221C43.8586 157.896 47.2644 158.341 50.7136 158.522Z" fill="#884E1E"/>
<path d="M51.111 180.27C57.1544 180.587 61.7424 180.473 65.1992 179.945C67.435 179.589 69.0498 177.545 68.902 175.291C68.4274 167.994 64.3726 165.269 62.2917 164.361L62.6999 156.579L61.2058 156.884C57.7319 157.175 51.4107 157.08 51.4107 157.08C48.1089 156.907 43.994 156.455 40.8349 155.816L39.3733 155.503L38.3915 174.223C38.3065 175.844 39.171 177.397 40.6095 178.153C42.1053 178.941 44.4484 179.921 47.1311 180.062C47.4554 180.079 47.8681 180.1 48.3988 180.128C49.1358 180.167 50.0497 180.215 51.111 180.27Z" fill="#D5C18F"/>
<path d="M41.9352 134.826L40.8344 155.816C47.5343 157.143 54.3179 157.44 61.2052 156.885L62.0246 141.26L62.9546 135.929L41.9352 134.826Z" fill="#FBB26F"/>
<path d="M40.8357 155.787L39.8679 174.241C39.8122 175.303 40.3803 176.308 41.3005 176.8C42.652 177.521 44.7918 178.431 47.1797 178.556C49.8035 178.694 58.7205 179.457 64.9499 178.483C66.441 178.236 67.516 176.903 67.4179 175.391C66.8376 166.728 60.7598 165.375 60.7598 165.375L61.205 156.884C54.3177 157.44 47.5341 157.143 40.8357 155.787Z" fill="#FEF8DB"/>
<path d="M61.7862 179.589C62.1989 179.611 62.5402 179.303 62.5619 178.891C62.9283 171.904 60.3894 169.021 60.3071 168.899C60.0278 168.589 59.5561 168.564 59.2753 168.845C58.965 169.124 58.9403 169.596 59.2212 169.877C59.2476 169.937 61.4482 172.506 61.1189 178.785C61.0677 179.197 61.3735 179.567 61.7862 179.589Z" fill="#D5C18F"/>
<path d="M52.4173 179.6C52.83 179.621 53.1713 179.314 53.193 178.901C53.5594 171.914 51.0205 169.032 50.9382 168.91C50.6589 168.599 50.1872 168.575 49.9064 168.855C49.5961 169.135 49.5714 169.606 49.8523 169.887C49.8802 169.918 52.0793 172.517 51.75 178.796C51.6973 179.237 52.0046 179.578 52.4173 179.6Z" fill="#D5C18F"/>
<path opacity="0.2" d="M39.7414 148.457L63.116 148.619L63.6385 138.654L40.3196 137.432L39.7414 148.457Z" fill="#0B0E2A"/>
<path d="M167.993 95.3929C170.901 90.0084 175.459 80.7891 178.788 74.0359C180.501 70.5509 181.875 67.7922 182.415 66.7383C183.252 65.1399 185.121 61.2308 186.551 57.6423C188.762 52.0398 189.036 49.4395 187.561 48.4002C185.798 47.151 182.391 48.4255 173.546 53.6773C173.129 53.9069 172.777 54.1421 172.498 54.3171C169.654 55.9706 147.025 66.1216 143.752 67.063C143.127 67.2353 142.663 67.7126 142.516 68.3494C142.255 69.4004 142.739 70.8724 146.054 74.9032C147.95 77.2369 150.625 80.2197 154.045 83.7957C159.835 89.8913 165.768 95.6944 165.829 95.7658L167.15 97.057L167.993 95.3929Z" fill="#884E1E"/>
<path d="M166.805 94.7353C171.223 86.5376 179.612 69.1767 181.236 66.1213C182.859 63.0659 188.6 50.8333 186.803 49.5282C185.016 48.2636 175.995 53.8583 173.233 55.4923C170.487 57.101 147.583 67.3612 144.173 68.3571C140.737 69.3377 166.805 94.7353 166.805 94.7353Z" fill="#E37B35"/>
<path d="M165.461 86.9633C168.723 80.3767 172.573 72.939 173.571 71.0229C174.568 69.1068 178.9 62.24 177.601 61.3084C176.302 60.3767 167.985 65.3289 166.607 66.113C165.229 66.8971 153.239 72.2001 151.19 73.2321C149.142 74.2641 157.622 89.7169 157.622 89.7169L165.461 86.9633Z" fill="#FBB26F"/>
<path d="M156.198 69.9688L156.278 69.1159C156.577 65.023 156.294 57.7318 156.075 52.3961C155.998 50.6764 155.939 49.1648 155.912 48.0987C155.891 47.4469 155.739 41.4646 155.154 35.8117C154.311 27.4823 153.179 25.6121 151.66 25.2865C147.543 24.3947 143.717 31.1494 139.298 38.934C137.68 41.8259 135.969 44.7716 134.418 47.0169C131.9 50.6249 116.815 73.3983 116.051 74.8321C115.72 75.4337 114.956 76.8675 119.899 86.3834L120.511 87.543L156.198 69.9688Z" fill="#884E1E"/>
<path d="M154.893 69.0348C155.294 63.7059 154.648 52.5196 154.519 48.165C154.39 43.8104 153.706 27.2104 151.369 26.7186C146.813 25.7419 140.782 40.3518 135.521 47.88C132.875 51.6579 117.981 74.2059 117.251 75.553C116.553 76.8724 121.123 85.6863 121.123 85.6863L154.893 69.0348Z" fill="#E37B35"/>
<path d="M149.005 68.6009C149.546 62.8958 150.75 50.9307 150.67 48.7672C150.576 46.3369 150.904 42.7484 149.089 42.4351C147.274 42.1217 143.197 50.1333 141.773 52.7408C140.378 55.3501 133.259 67.8262 131.667 70.7788C130.074 73.7314 146.776 75.8632 146.776 75.8632L149.005 68.6009Z" fill="#FBB26F"/>
<path d="M115.549 58.7432C105.956 59.2278 98.8017 59.3123 93.0427 59.2483C87.9044 59.1808 83.8956 58.9538 80.2985 58.7736C75.3163 58.5058 71.219 58.2751 66.2711 58.5997C65.5902 58.6303 64.8787 58.6891 64.1363 58.7762C56.7513 59.4419 52.1523 60.6085 48.8164 62.6552C45.3294 64.7842 43.2185 67.9164 41.9504 72.7976C41.4572 74.6975 40.9872 76.7461 40.5714 78.9151C40.5345 79.0909 40.4964 79.2961 40.4595 79.4718C39.2352 86.1276 38.3769 93.9216 38.0483 101.767C37.8864 105.631 37.8413 109.529 37.9461 113.375C38.2834 127.896 40.0181 136.567 43.5074 140.732C43.5922 140.824 43.6474 140.915 43.7334 140.978C44.2986 141.592 44.897 142.12 45.5594 142.531C48.6412 144.433 53.2225 145.807 60.0062 146.8C69.2563 148.163 82.5843 148.81 99.667 148.698C123.429 148.541 137.59 148.336 152.9 146.112C160.541 144.984 166.565 142.252 170.763 137.966C174.683 133.964 176.916 128.621 177.232 122.489C177.333 120.779 177.399 119.186 177.462 117.682C177.506 116.65 177.548 115.647 177.588 114.674C177.697 112.078 177.754 110.012 177.837 108.036L177.902 106.473C177.963 105.028 178.013 101.72 177.806 97.4866C177.335 88.2778 175.509 74.728 169.187 66.9583C165.084 61.9113 159.696 59.3514 151.139 58.3725C142.964 57.4391 132.219 57.905 115.549 58.7432Z" fill="#884E1E"/>
<path d="M115.609 60.1344C112.115 60.3131 108.918 60.4452 106.019 60.5305C82.2054 61.2172 76.3277 59.0505 64.2565 60.1404C50.702 61.375 45.5532 64.38 43.2962 73.1199C41.0096 81.8586 38.9737 96.6058 39.3362 113.344C39.6988 130.083 41.9693 138.658 46.2885 141.351C50.6077 144.043 61.2744 147.563 99.6661 147.309C104.809 147.259 109.567 147.251 113.973 147.17C129.375 146.958 140.86 146.464 152.722 144.715C167.973 142.488 175.284 133.723 175.876 122.402C175.982 120.575 176.051 118.923 176.112 117.478C176.343 112.671 176.412 109.602 176.546 106.416C176.614 104.085 176.619 101.13 176.489 97.9042C176.019 87.9568 174.045 75.1099 168.146 67.8307C160.248 58.1631 147.706 58.4947 115.609 60.1344Z" fill="#FBB26F"/>
<path d="M66.7763 59.9503C66.7763 59.9503 71.0224 65.8012 79.045 66.1372C84.5016 66.3657 86.4201 65.7074 90.008 63.2871L91.6861 60.6096C84.1292 60.4408 73.945 59.5119 66.7763 59.9503Z" fill="#E37B35"/>
<path d="M80.269 58.7725C83.3352 58.9305 88.7328 59.1566 92.8351 59.2693L91.6857 60.6099C81.2076 60.3483 74.21 59.5233 66.7759 59.9506L66.6571 58.5569C71.4255 58.2839 75.4343 58.5109 80.269 58.7725Z" fill="#884E1E"/>
<path d="M41.9887 78.945L40.6024 78.887C39.3142 85.6583 38.4165 93.687 38.0792 101.739C37.9174 105.603 37.8723 109.501 37.9772 113.347C38.3021 128.163 40.1227 136.897 43.7645 140.949L45.9741 141.101C41.9327 138.125 39.7225 129.523 39.3377 113.315C39.0432 99.8885 40.2908 87.7379 41.9887 78.945Z" fill="#884E1E"/>
<path d="M176.083 117.447L175.671 117.4C175.819 117.407 175.965 117.442 176.083 117.447Z" fill="#FEF8DB"/>
<path d="M176.461 97.8733C176.4 97.9003 176.339 97.9568 176.277 98.0133L176.458 97.9323C176.458 97.9323 176.459 97.9028 176.461 97.8733Z" fill="#FEF8DB"/>
<path d="M114.099 60.1894C112.265 60.9399 108.989 62.28 108.669 69.9192C108.109 83.2804 113.833 89.1046 113.833 89.1046L120.925 91.9131C120.925 91.9131 149.011 105.617 160.301 104.14C168.65 103.042 173.506 99.9657 176.46 97.8734C175.99 87.9261 174.016 75.0792 168.117 67.8C160.247 58.1631 147.682 58.3459 114.099 60.1894Z" fill="#E37B35"/>
<path d="M150.893 115.742C141.96 115.988 114.743 128.794 114.001 140.139C113.834 142.732 113.825 145.065 113.945 147.139C129.347 146.927 140.832 146.433 152.694 144.684C167.945 142.457 175.256 133.693 175.848 122.371C175.954 120.544 176.023 118.892 176.084 117.447C170.093 116.576 158.494 115.558 150.893 115.742Z" fill="#E37B35"/>
<path d="M177.806 97.4865L176.456 97.9618C176.618 101.16 176.613 104.085 176.516 106.415C176.413 109.572 176.313 112.67 176.083 117.447L177.465 117.623C177.508 116.591 177.55 115.588 177.591 114.615C177.699 112.019 177.756 109.953 177.839 107.977L177.905 106.414C177.934 104.997 178.014 101.691 177.806 97.4865Z" fill="#D5C18F"/>
<path d="M144.898 101.574L138.511 102.4L140.617 118.414C144.791 116.816 148.496 115.848 150.892 115.771C158.495 115.558 170.092 116.605 176.083 117.477C176.314 112.67 176.383 109.6 176.517 106.415C176.585 104.083 176.591 101.129 176.46 97.9028C173.506 99.9951 168.679 103.073 160.301 104.169C156.5 104.631 150.789 103.416 144.898 101.574Z" fill="#FEF8DB"/>
<path d="M159.202 117.324C160.422 117.83 171.325 122.099 174.548 117.184C179.375 109.85 181.957 104.084 182.449 99.5605C183.283 92.0296 180.373 88.6642 177.8 87.1586C177.711 87.1067 177.6 87.0418 177.511 86.9899C171.417 83.7215 166.132 86.748 160.414 96.8571C153.573 108.952 158.431 116.546 158.654 116.884L158.866 117.187L159.202 117.324Z" fill="#0B0E2A"/>
<path d="M176.975 88.0423C172.861 85.814 168.02 85.8629 161.47 97.4448C154.919 109.027 159.662 116.197 159.662 116.197C159.662 116.197 170.79 120.747 173.578 116.497C176.366 112.247 180.661 105.227 181.302 99.3947C181.918 93.6072 180.322 89.8517 176.975 88.0423Z" fill="white"/>
<path d="M173.822 92.1403C172.262 91.1388 169.054 92.3211 167.295 96.1626C165.535 100.004 165.878 103.888 165.878 103.888C165.878 103.888 170.923 104.73 173.622 100.22C176.32 95.7106 175.239 93.0286 173.822 92.1403Z" fill="#0B0E2A"/>
<path d="M132.93 132.814C139.675 136.76 138.043 136.043 138.695 136.246C142.352 138.029 146.017 140.321 146.481 139.553C146.607 139.33 146.724 139.072 146.85 138.848C146.983 138.926 147.116 139.004 147.249 139.082C153.417 142.69 156.085 140.479 162.544 135.169C164.039 133.935 165.714 132.539 167.766 130.948C167.933 130.808 168.088 130.691 168.256 130.551C172.963 126.771 175.303 123.418 175.376 120.312C175.443 117.322 173.489 115.139 171.545 113.408C171.218 113.098 170.856 112.798 170.517 112.51L170.463 112.449C166.382 108.962 154.252 100.233 153.722 99.8636L153.282 99.5464L143.146 104.309C142.402 104.319 141.13 107.614 136.824 109.431C132.449 111.267 129.714 110.202 125.982 118.681C125.304 120.245 124.031 118.58 125.311 122.268C126.343 125.248 125.028 128.043 130.048 131.069C130.587 131.473 132.397 132.502 132.93 132.814Z" fill="#D5C18F"/>
<path d="M136.716 107.17C139.77 103.492 141.789 102.951 141.789 102.951L152.978 100.972C152.978 100.972 165.539 109.984 169.62 113.47C169.982 113.771 170.331 114.093 170.692 114.394C174.327 117.679 177.174 121.78 167.428 129.562C167.273 129.679 167.106 129.819 166.951 129.936C155.914 138.538 154.483 142.007 147.437 137.707L143.119 141.477C143.119 141.477 133.46 136.628 129.55 133.569C125.641 130.51 120.074 121.61 124.226 114.268C127.366 108.769 132.721 107.654 136.716 107.17Z" fill="#FEF8DB"/>
<path d="M161.954 129.062C163.063 129.711 165.029 129.732 167.2 129.131C168.766 128.711 172.617 127.281 174.68 123.528C176.441 120.311 175.118 117.012 171.146 114.689C170.636 114.39 170.233 114.214 170.078 114.124C168.512 113.237 161.044 109.997 158.898 113.79C157.143 116.892 157.868 120.049 158.363 122.15C158.985 124.86 159.846 127.829 161.954 129.062Z" fill="#0B0E2A"/>
<path d="M169.55 115.211C167.709 114.134 161.442 111.745 159.94 114.4C158.438 117.056 159.067 119.859 159.52 121.877C159.973 123.894 160.726 126.948 162.501 127.987C164.276 129.025 170.954 127.764 173.614 122.905C176.306 118.094 169.55 115.211 169.55 115.211Z" fill="#4A423E"/>
<path d="M169.305 115.75C168.113 115.142 164.88 113.34 164.085 114.746C163.29 116.152 166.065 118.607 167.304 119.183C168.543 119.76 171.973 120.222 172.692 118.95C173.412 117.678 170.328 116.29 169.305 115.75Z" fill="#FEF8DB"/>
<path d="M146.905 138.91C147.194 139.079 147.599 138.989 147.763 138.699C147.94 138.386 147.857 138.011 147.559 137.807C147.448 137.742 147.314 137.664 147.137 137.56C144.665 136.084 137.168 131.64 138.983 122.01C139.059 121.668 138.814 121.317 138.475 121.237C138.136 121.158 137.792 121.402 137.716 121.744C136.86 126.233 137.793 130.223 140.449 133.618C142.582 136.321 145.209 137.888 146.484 138.663C146.661 138.767 146.794 138.845 146.905 138.91Z" fill="#D5C18F"/>
<path d="M132.949 123.173C133.149 123.29 133.389 123.282 133.601 123.169C137.905 120.519 140.942 124.077 141.059 124.235C141.285 124.515 141.684 124.541 141.959 124.316C142.234 124.09 142.255 123.687 142.03 123.407C141.998 123.359 138.177 118.837 132.928 122.062C132.621 122.239 132.543 122.638 132.721 122.95C132.762 123.034 132.86 123.121 132.949 123.173Z" fill="#D5C18F"/>
<path d="M141.584 143.252C141.806 143.381 142.104 143.377 142.297 143.193L147.411 138.849C147.686 138.624 147.707 138.221 147.482 137.94C147.257 137.66 146.858 137.635 146.583 137.86L141.468 142.204C141.193 142.429 141.172 142.832 141.397 143.112C141.464 143.151 141.518 143.213 141.584 143.252Z" fill="#D5C18F"/>
<path d="M132.76 114.062C132.893 114.14 133.026 114.218 133.16 114.296C136.795 116.274 140.826 116.612 144.556 115.29C147.844 114.124 152.467 111.067 155.732 103.206C159.627 93.8128 162.79 82.2686 152.651 76.337L152.584 76.298C147.291 73.2312 136.359 74.914 129.623 86.0911C125.811 92.4142 124.5 99.0128 125.938 104.666C126.969 108.743 129.41 112.102 132.76 114.062Z" fill="#0B0E2A"/>
<path d="M151.991 77.3468C146.898 74.3968 136.739 76.5916 130.619 86.7328C123.297 98.8434 126.736 109.468 133.696 113.243C140.656 117.018 149.694 114.612 154.614 102.73C159.533 90.847 160.204 82.0917 151.991 77.3468Z" fill="white"/>
<path d="M151.691 85.537C149.597 84.3308 146.621 86.1366 144.556 90.9531C142.492 95.7696 144.074 98.6338 145.74 99.4457C147.384 100.245 150.507 99.2332 152.759 93.815C155.011 88.3967 153.228 86.4224 151.691 85.537Z" fill="#0B0E2A"/>
<path d="M141.703 72.5454C141.777 72.6541 141.869 72.7443 141.925 72.835C142.574 73.6494 143.971 74.0172 146.783 74.7343C148.271 75.1193 149.958 75.5204 151.359 76.0342C152.522 76.4594 153.748 77.2673 154.973 78.0387C157.333 79.5642 159.564 80.9999 161.527 79.8825C162.633 79.2494 163.405 78.1453 163.684 76.7728C164.077 74.7966 163.452 72.5031 161.967 70.4749C161.911 70.3842 161.856 70.3301 161.8 70.2394C159.539 67.3434 158.204 66.5367 156.669 65.6045C156.487 65.497 156.285 65.3714 156.103 65.2639C153.178 63.4708 146.288 61.9412 142.892 65.3385C139.778 68.4406 140.534 70.97 141.703 72.5454Z" fill="#D5C18F"/>
<path d="M155.475 66.3301C153.026 64.8239 146.659 63.3066 143.705 66.2426C140.75 69.1786 142.091 71.172 142.85 72.0946C143.608 73.0173 148.332 73.64 151.769 74.8979C155.206 76.1558 158.788 80.0594 160.929 78.8305C163.106 77.6012 163.251 74.0941 160.842 71.0172C158.468 67.9399 157.249 67.424 155.475 66.3301Z" fill="#FEF8DB"/>
<path d="M181.745 93.1488C183.221 93.4821 184.77 92.94 185.988 91.6423C187.423 90.0913 188.046 87.8928 187.542 86.1716C186.689 83.2748 185.68 80.9277 183.322 78.2668C181.226 75.9336 177.618 74.2525 175.719 73.8015C175.644 73.7898 175.593 73.7819 175.517 73.7702C172.955 73.2684 167.828 73.5426 166.806 78.1828C165.943 82.0654 169.537 83.666 172.161 84.8292C173.182 85.2745 174.128 85.708 174.708 86.1633C175.495 86.8068 176.227 87.8332 177.005 88.8929C178.318 90.7395 179.677 92.6194 181.695 93.141L181.745 93.1488Z" fill="#D5C18F"/>
<path d="M182.408 79.064C180.403 76.8231 176.755 75.2401 175.275 74.9324C173.795 74.6246 168.86 74.2765 167.958 78.4397C167.055 82.603 173.148 83.3394 175.439 85.2073C177.729 87.0753 179.3 91.283 181.967 91.9575C184.609 92.628 187.117 88.9747 186.387 86.4881C185.581 83.8072 184.705 81.6111 182.408 79.064Z" fill="#FEF8DB"/>
</svg>
