<svg width="231" height="208" viewBox="0 0 231 208" fill="none" xmlns="http://www.w3.org/2000/svg">
<path d="M143.69 162.849C147.139 163.03 150.719 162.981 154.312 162.667L155.589 162.557L156.472 145.724L157.69 138.841L133.516 137.573L132.272 161.305L133.53 161.548C136.835 162.224 140.241 162.668 143.69 162.849Z" fill="#884E1E"/>
<path d="M144.086 184.598C150.129 184.915 154.717 184.801 158.174 184.273C160.41 183.917 162.025 181.873 161.877 179.619C161.402 172.322 157.348 169.596 155.267 168.689L155.675 160.906L154.181 161.212C150.707 161.503 144.386 161.408 144.386 161.408C141.084 161.235 136.969 160.783 133.81 160.144L132.348 159.831L131.366 178.551C131.281 180.172 132.146 181.725 133.584 182.481C135.08 183.269 137.423 184.249 140.106 184.389C140.43 184.406 140.843 184.428 141.374 184.456C142.111 184.494 143.025 184.542 144.086 184.598Z" fill="#D5C18F"/>
<path d="M134.91 139.154L133.809 160.144C140.509 161.471 147.293 161.767 154.18 161.212L155 145.588L155.93 140.256L134.91 139.154Z" fill="#FBB26F"/>
<path d="M133.812 160.114L132.845 178.569C132.789 179.63 133.357 180.635 134.277 181.127C135.629 181.848 137.769 182.759 140.156 182.884C142.78 183.022 151.697 183.785 157.927 182.811C159.418 182.564 160.493 181.231 160.395 179.718C159.814 171.056 153.736 169.702 153.736 169.702L154.182 161.212C147.294 161.767 140.511 161.47 133.812 160.114Z" fill="#FEF8DB"/>
<path d="M154.764 183.916C155.176 183.938 155.518 183.631 155.539 183.218C155.906 176.231 153.367 173.349 153.285 173.226C153.005 172.916 152.533 172.891 152.253 173.172C151.942 173.451 151.918 173.923 152.199 174.204C152.225 174.264 154.426 176.833 154.096 183.113C154.045 183.524 154.351 183.895 154.764 183.916Z" fill="#D5C18F"/>
<path d="M145.393 183.928C145.805 183.949 146.147 183.642 146.168 183.229C146.535 176.243 143.996 173.36 143.914 173.238C143.634 172.927 143.163 172.903 142.882 173.184C142.571 173.463 142.547 173.935 142.828 174.215C142.856 174.246 145.055 176.845 144.725 183.124C144.673 183.565 144.98 183.906 145.393 183.928Z" fill="#D5C18F"/>
<path opacity="0.2" d="M132.718 152.785L156.093 152.946L156.615 142.982L133.296 141.759L132.718 152.785Z" fill="#0B0E2A"/>
<path d="M129.224 162.527C132.674 162.708 136.253 162.659 139.847 162.345L141.123 162.234L142.006 145.401L143.224 138.518L119.051 137.25L117.806 160.982L119.064 161.225C122.369 161.901 125.775 162.346 129.224 162.527Z" fill="#884E1E"/>
<path d="M129.622 184.275C135.665 184.592 140.253 184.478 143.71 183.95C145.946 183.594 147.561 181.55 147.413 179.296C146.938 171.999 142.883 169.274 140.803 168.366L141.211 160.583L139.717 160.889C136.243 161.18 129.922 161.085 129.922 161.085C126.62 160.912 122.505 160.46 119.346 159.821L117.884 159.508L116.902 178.228C116.817 179.849 117.682 181.402 119.12 182.158C120.616 182.946 122.959 183.926 125.642 184.066C125.966 184.083 126.379 184.105 126.91 184.133C127.647 184.172 128.561 184.22 129.622 184.275Z" fill="#D5C18F"/>
<path d="M120.446 138.831L119.345 159.821C126.045 161.148 132.829 161.445 139.716 160.89L140.536 145.265L141.465 139.934L120.446 138.831Z" fill="#FBB26F"/>
<path d="M119.347 159.792L118.379 178.246C118.323 179.308 118.891 180.313 119.811 180.805C121.163 181.526 123.303 182.436 125.691 182.561C128.314 182.699 137.231 183.462 143.461 182.488C144.952 182.241 146.027 180.908 145.929 179.396C145.348 170.733 139.271 169.38 139.271 169.38L139.716 160.889C132.829 161.445 126.045 161.148 119.347 159.792Z" fill="#FEF8DB"/>
<path d="M140.3 183.594C140.713 183.615 141.054 183.308 141.076 182.895C141.442 175.908 138.904 173.026 138.821 172.904C138.542 172.593 138.07 172.569 137.789 172.849C137.479 173.129 137.454 173.601 137.735 173.881C137.762 173.942 139.962 176.511 139.633 182.79C139.582 183.201 139.888 183.572 140.3 183.594Z" fill="#D5C18F"/>
<path d="M130.928 183.605C131.341 183.626 131.682 183.319 131.704 182.906C132.07 175.919 129.531 173.037 129.449 172.915C129.17 172.604 128.698 172.58 128.417 172.86C128.107 173.14 128.082 173.611 128.363 173.892C128.391 173.923 130.59 176.522 130.261 182.801C130.208 183.242 130.515 183.583 130.928 183.605Z" fill="#D5C18F"/>
<path opacity="0.2" d="M118.252 152.462L141.627 152.624L142.149 142.659L118.831 141.436L118.252 152.462Z" fill="#0B0E2A"/>
<path d="M94.9982 161.064C98.4474 161.245 102.027 161.196 105.62 160.882L106.897 160.772L107.78 143.938L108.998 137.055L84.8245 135.788L83.5799 159.519L84.8383 159.763C88.1433 160.439 91.5491 160.883 94.9982 161.064Z" fill="#884E1E"/>
<path d="M95.3956 182.812C101.439 183.129 106.027 183.015 109.484 182.487C111.72 182.131 113.334 180.088 113.187 177.833C112.712 170.536 108.657 167.811 106.576 166.904L106.985 159.121L105.49 159.427C102.017 159.717 95.6954 159.622 95.6954 159.622C92.3936 159.449 88.2787 158.997 85.1196 158.358L83.6579 158.045L82.6762 176.765C82.5912 178.387 83.4557 179.94 84.8941 180.695C86.39 181.483 88.7331 182.463 91.4158 182.604C91.7401 182.621 92.1528 182.642 92.6834 182.67C93.4204 182.709 94.3343 182.757 95.3956 182.812Z" fill="#D5C18F"/>
<path d="M86.2199 137.369L85.1192 158.359C91.8191 159.686 98.6027 159.982 105.49 159.427L106.309 143.802L107.239 138.471L86.2199 137.369Z" fill="#FBB26F"/>
<path d="M85.1204 158.329L84.1525 176.784C84.0969 177.845 84.665 178.85 85.5851 179.342C86.9367 180.063 89.0765 180.973 91.4644 181.099C94.0881 181.236 103.005 181.999 109.235 181.025C110.726 180.778 111.801 179.446 111.703 177.933C111.122 169.27 105.044 167.917 105.044 167.917L105.49 159.427C98.6024 159.982 91.8188 159.685 85.1204 158.329Z" fill="#FEF8DB"/>
<path d="M106.071 182.131C106.484 182.152 106.825 181.845 106.847 181.432C107.213 174.445 104.674 171.563 104.592 171.441C104.313 171.13 103.841 171.106 103.56 171.386C103.25 171.666 103.225 172.137 103.506 172.418C103.532 172.479 105.733 175.048 105.404 181.327C105.353 181.738 105.658 182.109 106.071 182.131Z" fill="#D5C18F"/>
<path d="M96.7003 182.142C97.113 182.163 97.4543 181.856 97.4759 181.443C97.8423 174.457 95.3034 171.574 95.2212 171.452C94.9418 171.141 94.4701 171.117 94.1893 171.398C93.8791 171.677 93.8543 172.149 94.1352 172.429C94.1632 172.46 96.3622 175.059 96.0329 181.338C95.9803 181.779 96.2875 182.12 96.7003 182.142Z" fill="#D5C18F"/>
<path opacity="0.2" d="M84.0262 150.999L107.401 151.161L107.923 141.197L84.6044 139.974L84.0262 150.999Z" fill="#0B0E2A"/>
<path d="M26.2004 59.5941C26.7329 64.8693 28.1378 69.4867 30.2511 72.9106C30.8985 73.9718 32.6052 75.9093 35.5185 78.9808L36.6016 80.0939L37.4954 78.8047C42.1362 72.0908 48.8579 67.2292 57.468 64.3568L58.879 63.8952L58.0505 62.2744C57.893 61.9517 57.6637 61.4263 57.4001 60.8529C55.5315 56.6022 51.6538 47.8021 45.111 49.4552C44.7473 49.3519 43.9281 48.5582 43.3556 48.0599C41.4839 46.3486 38.6764 43.7818 35.0511 44.9512C31.2884 46.1821 31.0552 48.9581 31.1327 50.1353C29.4504 50.8265 25.7313 52.9325 26.055 57.8129C26.0988 58.4341 26.1496 59.0141 26.2004 59.5941Z" fill="#D5C18F"/>
<path d="M58.2074 62.5969C58.2862 62.7583 58.3649 62.9197 58.4779 63.1292C58.495 63.1532 58.495 63.1532 58.5121 63.1772C59.6626 65.4024 62.1551 70.2235 64.367 74.4472L64.7504 75.1889L63.6995 75.9014C61.3918 71.4923 58.6218 66.1801 57.4167 63.7765L56.7333 64.191L63.3458 76.1172L64.7745 75.1718L64.8532 75.3332C66.281 78.0494 67.9553 81.3149 68.3387 82.0566L68.462 82.3313L68.4694 87.5819L60.7448 104.721L59.439 103.295C56.1488 99.695 50.9833 94.5309 45.979 89.5421C42.0989 85.6734 39.5417 83.2543 36.6455 80.207L35.9224 79.3447L36.4319 78.0756C41.3855 70.8851 47.8908 66.1777 57.0606 63.1241L58.2588 62.669L58.2074 62.5969Z" fill="#884E1E"/>
<path d="M35.4577 46.1835C32.6597 47.0896 32.3417 48.9835 32.4262 50.1195C32.4667 50.6343 32.171 51.135 31.6697 51.3472C30.1007 51.9939 27.0752 53.7508 27.3312 57.7731C27.6885 63.2094 28.9384 68.3722 31.3531 72.2701C32.0176 73.3553 33.9094 75.4509 36.4663 78.1238C41.114 71.3688 47.836 66.2533 57.095 63.1723C57.0505 63.059 56.982 62.9628 56.9376 62.8495C55.5852 60.1883 51.7652 49.0272 45.4042 50.7321C43.3892 51.2616 40.2262 44.6346 35.4577 46.1835Z" fill="#FEF8DB"/>
<path d="M26.5471 62.0652C26.5574 62.1305 26.5847 62.2197 26.5949 62.2849C27.5842 64.3349 29.5686 66.5095 30.573 67.4613C30.8266 67.7155 31.2351 67.6783 31.4653 67.4418C31.7195 67.1881 31.6822 66.7797 31.4457 66.5495C30.5511 65.7008 28.6352 63.6223 27.7246 61.7338C27.5671 61.411 27.1863 61.2836 26.8636 61.4411C26.6541 61.5541 26.5063 61.8044 26.5471 62.0652Z" fill="#D5C18F"/>
<path d="M43.8511 50.0266C43.8614 50.0918 43.8887 50.1811 43.916 50.2703C44.1694 50.7785 44.9432 52.2208 45.1004 52.7975C45.1927 53.1305 45.5597 53.3402 45.8996 53.2068C46.2325 53.1145 46.4423 52.7476 46.3089 52.4077C46.0627 51.6044 45.1314 49.8394 45.0184 49.6299C44.8609 49.3071 44.4561 49.1968 44.1505 49.3783C43.9582 49.5154 43.8274 49.7898 43.8511 50.0266Z" fill="#D5C18F"/>
<path d="M31.1628 50.5845C31.1558 50.6257 31.1729 50.6498 31.1831 50.715C31.2003 50.739 31.7677 52.6546 32.2017 54.2303C32.2939 54.5633 32.6609 54.773 32.9939 54.6808C33.3268 54.5885 33.5366 54.2216 33.4443 53.8886C33.0104 52.3129 32.4259 50.3733 32.4087 50.3493C32.3165 50.0163 31.9496 49.8065 31.6097 49.9399C31.3007 50.015 31.1288 50.2825 31.1628 50.5845Z" fill="#D5C18F"/>
<path d="M58.4773 63.1295L57.3921 63.794C58.6212 66.1805 61.3912 71.4927 63.6749 75.9189L64.7258 75.2063L64.3423 74.4647C62.1374 70.1998 59.6208 65.3958 58.4875 63.1947C58.4944 63.1536 58.4773 63.1295 58.4773 63.1295Z" fill="#884E1E"/>
<path d="M57.0535 63.1656C47.8185 66.2295 41.0965 71.345 36.4247 78.1172C43.1803 85.1568 54.5708 96.1073 60.3629 102.456L67.1757 87.3439L67.1778 82.6665C66.8286 81.9729 65.3837 79.2326 63.6924 75.943C61.3675 71.5099 58.5873 66.1325 57.3582 63.746C57.2452 63.5365 57.1322 63.327 57.0535 63.1656Z" fill="#FBB26F"/>
<path d="M57.3751 63.7698C54.9095 65.0916 54.1296 68.7283 55.6013 72.0657C57.1346 75.5404 60.5504 77.3839 63.2492 76.186C63.4105 76.1072 63.5719 76.0285 63.7162 75.9257C61.3913 71.4926 58.5871 66.1323 57.3751 63.7698Z" fill="#E37B35"/>
<path d="M73.4581 160.438C76.9073 160.619 80.4868 160.571 84.0802 160.256L85.3571 160.146L86.2399 143.313L87.4581 136.43L63.2843 135.162L62.0397 158.894L63.2981 159.137C66.6031 159.813 70.0089 160.258 73.4581 160.438Z" fill="#884E1E"/>
<path d="M73.8555 182.187C79.8989 182.504 84.4869 182.39 87.9437 181.861C90.1795 181.506 91.7943 179.462 91.6465 177.207C91.1719 169.91 87.1171 167.185 85.0363 166.278L85.4444 158.495L83.9503 158.801C80.4764 159.092 74.1552 158.997 74.1552 158.997C70.8534 158.824 66.7386 158.371 63.5794 157.733L62.1178 157.42L61.136 176.14C61.051 177.761 61.9155 179.314 63.354 180.069C64.8498 180.857 67.1929 181.837 69.8756 181.978C70.1999 181.995 70.6126 182.017 71.1433 182.045C71.8803 182.083 72.7942 182.131 73.8555 182.187Z" fill="#D5C18F"/>
<path d="M64.6797 136.743L63.5789 157.733C70.2788 159.06 77.0624 159.356 83.9497 158.801L84.7692 143.177L85.6991 137.845L64.6797 136.743Z" fill="#FBB26F"/>
<path d="M63.5802 157.703L62.6124 176.158C62.5567 177.219 63.1248 178.224 64.045 178.716C65.3965 179.437 67.5363 180.348 69.9242 180.473C72.548 180.611 81.465 181.374 87.6945 180.4C89.1855 180.153 90.2605 178.82 90.1624 177.307C89.5821 168.645 83.5043 167.291 83.5043 167.291L83.9496 158.801C77.0622 159.356 70.2786 159.059 63.5802 157.703Z" fill="#FEF8DB"/>
<path d="M84.5307 181.505C84.9434 181.527 85.2847 181.22 85.3064 180.807C85.6728 173.82 83.1339 170.938 83.0516 170.815C82.7723 170.505 82.3006 170.48 82.0198 170.761C81.7095 171.041 81.6848 171.512 81.9657 171.793C81.9921 171.854 84.1927 174.423 83.8634 180.702C83.8123 181.113 84.118 181.484 84.5307 181.505Z" fill="#D5C18F"/>
<path d="M75.1618 181.516C75.5745 181.538 75.9158 181.23 75.9375 180.818C76.3039 173.831 73.765 170.949 73.6827 170.826C73.4034 170.516 72.9317 170.491 72.6509 170.772C72.3406 171.051 72.3159 171.523 72.5968 171.804C72.6247 171.835 74.8238 174.433 74.4945 180.713C74.4418 181.153 74.7491 181.494 75.1618 181.516Z" fill="#D5C18F"/>
<path opacity="0.2" d="M62.4859 150.374L85.8605 150.535L86.3831 140.571L63.0641 139.348L62.4859 150.374Z" fill="#0B0E2A"/>
<path d="M190.738 97.3094C193.646 91.9249 198.204 82.7056 201.533 75.9524C203.246 72.4674 204.619 69.7087 205.159 68.6548C205.997 67.0564 207.865 63.1473 209.296 59.5588C211.507 53.9563 211.78 51.356 210.305 50.3167C208.543 49.0675 205.136 50.342 196.29 55.5938C195.873 55.8234 195.522 56.0586 195.242 56.2336C192.399 57.8871 169.769 68.0381 166.496 68.9795C165.872 69.1518 165.407 69.6291 165.261 70.2659C164.999 71.3169 165.484 72.7889 168.799 76.8197C170.694 79.1534 173.37 82.1362 176.789 85.7122C182.579 91.8078 188.513 97.6109 188.573 97.6823L189.895 98.9735L190.738 97.3094Z" fill="#884E1E"/>
<path d="M189.549 96.6518C193.967 88.4541 202.356 71.0933 203.98 68.0378C205.604 64.9824 211.345 52.7498 209.548 51.4447C207.76 50.1801 198.74 55.7748 195.978 57.4088C193.231 59.0175 170.327 69.2777 166.917 70.2736C163.482 71.2542 189.549 96.6518 189.549 96.6518Z" fill="#E37B35"/>
<path d="M188.206 88.8798C191.467 82.2932 195.318 74.8555 196.315 72.9394C197.312 71.0233 201.644 64.1565 200.345 63.2249C199.046 62.2933 190.73 67.2454 189.351 68.0295C187.973 68.8136 175.983 74.1167 173.935 75.1486C171.886 76.1806 180.367 91.6334 180.367 91.6334L188.206 88.8798Z" fill="#FBB26F"/>
<path d="M178.943 71.8853L179.022 71.0324C179.321 66.9395 179.039 59.6483 178.819 54.3126C178.742 52.5929 178.683 51.0813 178.657 50.0152C178.636 49.3634 178.484 43.3811 177.898 37.7282C177.056 29.3988 175.923 27.5286 174.404 27.203C170.287 26.3112 166.461 33.0659 162.042 40.8505C160.424 43.7424 158.714 46.6881 157.163 48.9334C154.645 52.5414 139.56 75.3148 138.796 76.7486C138.465 77.3502 137.701 78.784 142.643 88.2999L143.256 89.4595L178.943 71.8853Z" fill="#884E1E"/>
<path d="M177.637 70.9513C178.038 65.6224 177.393 54.4361 177.263 50.0815C177.134 45.7269 176.451 29.1269 174.114 28.6351C169.558 27.6584 163.527 42.2683 158.266 49.7965C155.619 53.5744 140.725 76.1224 139.996 77.4695C139.297 78.7889 143.867 87.6028 143.867 87.6028L177.637 70.9513Z" fill="#E37B35"/>
<path d="M171.75 70.5174C172.291 64.8123 173.495 52.8472 173.414 50.6837C173.32 48.2534 173.649 44.6649 171.834 44.3516C170.018 44.0383 165.941 52.0498 164.517 54.6573C163.122 57.2666 156.004 69.7427 154.411 72.6953C152.819 75.6479 169.52 77.7797 169.52 77.7797L171.75 70.5174Z" fill="#FBB26F"/>
<path d="M138.293 60.6597C128.7 61.1443 121.546 61.2288 115.787 61.1648C110.649 61.0974 106.64 60.8703 103.043 60.6901C98.0608 60.4224 93.9635 60.1916 89.0156 60.5162C88.3347 60.5468 87.6232 60.6056 86.8808 60.6927C79.4958 61.3585 74.8968 62.525 71.5609 64.5717C68.0739 66.7007 65.963 69.8329 64.6949 74.7141C64.2017 76.614 63.7317 78.6626 63.3159 80.8316C63.279 81.0074 63.2409 81.2126 63.204 81.3883C61.9797 88.0442 61.1214 95.8381 60.7928 103.684C60.6309 107.548 60.5858 111.446 60.6906 115.291C61.0279 129.813 62.7626 138.484 66.2519 142.648C66.3367 142.74 66.3919 142.831 66.4779 142.894C67.0431 143.509 67.6416 144.036 68.3039 144.448C71.3857 146.35 75.967 147.724 82.7507 148.717C92.0008 150.079 105.329 150.726 122.411 150.614C146.174 150.457 160.335 150.253 175.645 148.028C183.285 146.9 189.309 144.168 193.507 139.883C197.427 135.881 199.66 130.538 199.976 124.405C200.077 122.696 200.144 121.103 200.207 119.599C200.25 118.566 200.292 117.564 200.333 116.59C200.442 113.995 200.499 111.929 200.581 109.953L200.647 108.389C200.707 106.944 200.757 103.637 200.551 99.4031C200.079 90.1943 198.254 76.6446 191.931 68.8749C187.829 63.8278 182.44 61.2679 173.883 60.289C165.708 59.3557 154.963 59.8215 138.293 60.6597Z" fill="#884E1E"/>
<path d="M138.353 62.051C134.859 62.2296 131.663 62.3617 128.764 62.4471C104.95 63.1337 99.0722 60.967 87.001 62.0569C73.4465 63.2915 68.2977 66.2965 66.0407 75.0364C63.7541 83.7751 61.7182 98.5223 62.0807 115.261C62.4433 132 64.7138 140.575 69.033 143.267C73.3523 145.959 84.0189 149.479 122.411 149.226C127.554 149.175 132.311 149.168 136.717 149.086C152.12 148.875 163.605 148.381 175.467 146.632C190.718 144.405 198.028 135.64 198.621 124.319C198.727 122.491 198.796 120.84 198.856 119.394C199.087 114.588 199.157 111.518 199.29 108.333C199.358 106.001 199.364 103.047 199.233 99.8207C198.763 89.8733 196.79 77.0264 190.89 69.7472C182.992 60.0796 170.451 60.4112 138.353 62.051Z" fill="#FBB26F"/>
<path d="M89.5208 61.8668C89.5208 61.8668 93.7669 67.7177 101.79 68.0537C107.246 68.2822 109.165 67.6239 112.752 65.2036L114.431 62.5261C106.874 62.3573 96.6895 61.4284 89.5208 61.8668Z" fill="#E37B35"/>
<path d="M103.014 60.689C106.08 60.847 111.477 61.0731 115.58 61.1858L114.43 62.5264C103.952 62.2648 96.9546 61.4398 89.5204 61.8671L89.4016 60.4734C94.17 60.2004 98.1788 60.4274 103.014 60.689Z" fill="#884E1E"/>
<path d="M64.7332 80.8615L63.3469 80.8035C62.0587 87.5748 61.161 95.6035 60.8238 103.656C60.6619 107.519 60.6168 111.418 60.7217 115.263C61.0466 130.08 62.8672 138.813 66.509 142.866L68.7186 143.018C64.6772 140.041 62.467 131.439 62.0822 115.232C61.7877 101.805 63.0353 89.6544 64.7332 80.8615Z" fill="#884E1E"/>
<path d="M198.828 119.364L198.416 119.317C198.563 119.323 198.71 119.359 198.828 119.364Z" fill="#FEF8DB"/>
<path d="M199.205 99.7898C199.145 99.8168 199.083 99.8733 199.022 99.9298L199.203 99.8488C199.203 99.8488 199.204 99.8193 199.205 99.7898Z" fill="#FEF8DB"/>
<path d="M136.844 62.1059C135.01 62.8564 131.733 64.1965 131.413 71.8357C130.853 85.197 136.578 91.0211 136.578 91.0211L143.67 93.8296C143.67 93.8296 171.756 107.534 183.045 106.057C191.394 104.959 196.25 101.882 199.204 99.7899C198.734 89.8426 196.761 76.9957 190.861 69.7165C182.992 60.0796 170.427 60.2624 136.844 62.1059Z" fill="#E37B35"/>
<path d="M173.637 117.658C164.704 117.905 137.487 130.711 136.746 142.055C136.578 144.648 136.569 146.982 136.689 149.055C152.092 148.844 163.577 148.35 175.439 146.601C190.69 144.374 198 135.609 198.593 124.288C198.699 122.46 198.768 120.809 198.828 119.363C192.837 118.492 181.239 117.474 173.637 117.658Z" fill="#E37B35"/>
<path d="M200.55 99.403L199.201 99.8783C199.362 103.076 199.358 106.001 199.26 108.331C199.158 111.488 199.057 114.587 198.828 119.364L200.209 119.54C200.252 118.507 200.294 117.504 200.335 116.531C200.444 113.936 200.501 111.87 200.584 109.894L200.649 108.33C200.679 106.913 200.758 103.607 200.55 99.403Z" fill="#D5C18F"/>
<path d="M167.642 103.491L161.255 104.316L163.362 120.33C167.536 118.732 171.24 117.765 173.637 117.688C181.239 117.474 192.837 118.522 198.828 119.393C199.059 114.587 199.128 111.517 199.261 108.331C199.33 106 199.335 103.045 199.204 99.8193C196.251 101.912 191.424 104.989 183.046 106.086C179.244 106.547 173.534 105.333 167.642 103.491Z" fill="#FEF8DB"/>
<path d="M181.947 119.241C183.167 119.746 194.069 124.016 197.293 119.1C202.12 111.767 204.702 106.001 205.193 101.477C206.028 93.9461 203.118 90.5807 200.544 89.0751C200.455 89.0232 200.344 88.9583 200.256 88.9064C194.161 85.638 188.876 88.6645 183.159 98.7736C176.317 110.869 181.176 118.463 181.398 118.801L181.611 119.104L181.947 119.241Z" fill="#0B0E2A"/>
<path d="M199.72 89.9589C195.606 87.7305 190.765 87.7794 184.214 99.3613C177.663 110.943 182.407 118.114 182.407 118.114C182.407 118.114 193.535 122.664 196.323 118.414C199.11 114.164 203.406 107.143 204.047 101.311C204.663 95.5237 203.066 91.7682 199.72 89.9589Z" fill="white"/>
<path d="M196.566 94.0568C195.007 93.0553 191.799 94.2376 190.039 98.0791C188.28 101.921 188.623 105.804 188.623 105.804C188.623 105.804 193.668 106.647 196.366 102.137C199.065 97.6271 197.983 94.9451 196.566 94.0568Z" fill="#0B0E2A"/>
<path d="M155.674 134.73C162.419 138.676 160.787 137.959 161.44 138.163C165.097 139.946 168.761 142.238 169.225 141.47C169.351 141.246 169.468 140.988 169.594 140.765C169.727 140.843 169.861 140.921 169.994 140.999C176.162 144.607 178.83 142.396 185.288 137.086C186.783 135.852 188.459 134.456 190.51 132.864C190.678 132.725 190.833 132.608 191 132.468C195.708 128.688 198.047 125.334 198.121 122.229C198.188 119.239 196.233 117.056 194.289 115.325C193.962 115.015 193.601 114.714 193.262 114.426L193.208 114.365C189.126 110.879 176.996 102.149 176.467 101.78L176.026 101.463L165.891 106.226C165.147 106.236 163.874 109.531 159.568 111.348C155.193 113.184 152.459 112.119 148.726 120.598C148.049 122.161 146.776 120.496 148.056 124.185C149.087 127.164 147.772 129.959 152.793 132.985C153.332 133.39 155.142 134.419 155.674 134.73Z" fill="#D5C18F"/>
<path d="M159.46 109.086C162.515 105.409 164.534 104.867 164.534 104.867L175.722 102.889C175.722 102.889 188.283 111.9 192.365 115.387C192.726 115.687 193.075 116.01 193.437 116.311C197.071 119.595 199.919 123.696 190.173 131.478C190.018 131.596 189.85 131.735 189.695 131.853C178.659 140.454 177.228 143.923 170.182 139.623L165.864 143.394C165.864 143.394 156.204 138.545 152.295 135.485C148.385 132.426 142.818 123.526 146.971 116.184C150.111 110.685 155.466 109.571 159.46 109.086Z" fill="#FEF8DB"/>
<path d="M184.698 130.978C185.808 131.627 187.774 131.649 189.945 131.048C191.511 130.628 195.361 129.197 197.425 125.445C199.185 122.227 197.862 118.929 193.891 116.605C193.38 116.307 192.978 116.131 192.823 116.04C191.257 115.154 183.788 111.913 181.642 115.707C179.888 118.809 180.613 121.965 181.107 124.066C181.73 126.777 182.59 129.745 184.698 130.978Z" fill="#0B0E2A"/>
<path d="M192.295 117.128C190.453 116.05 184.186 113.661 182.684 116.317C181.182 118.972 181.811 121.776 182.265 123.793C182.718 125.811 183.471 128.865 185.246 129.903C187.021 130.942 193.699 129.68 196.359 124.821C199.05 120.01 192.295 117.128 192.295 117.128Z" fill="#4A423E"/>
<path d="M192.049 117.667C190.858 117.059 187.625 115.257 186.83 116.663C186.035 118.069 188.81 120.524 190.049 121.1C191.288 121.676 194.717 122.138 195.437 120.866C196.156 119.594 193.073 118.206 192.049 117.667Z" fill="#FEF8DB"/>
<path d="M169.65 140.826C169.938 140.995 170.343 140.905 170.507 140.615C170.684 140.303 170.601 139.928 170.303 139.724C170.192 139.659 170.059 139.581 169.881 139.477C167.409 138.001 159.913 133.556 161.728 123.926C161.803 123.584 161.559 123.233 161.22 123.154C160.881 123.074 160.536 123.318 160.461 123.66C159.605 128.149 160.537 132.139 163.194 135.535C165.326 138.238 167.954 139.805 169.228 140.58C169.406 140.684 169.539 140.762 169.65 140.826Z" fill="#D5C18F"/>
<path d="M155.693 125.09C155.893 125.206 156.134 125.199 156.346 125.085C160.65 122.435 163.686 125.994 163.804 126.151C164.029 126.432 164.428 126.457 164.703 126.232C164.978 126.007 165 125.604 164.774 125.323C164.743 125.275 160.922 120.753 155.672 123.978C155.366 124.155 155.287 124.555 155.465 124.867C155.506 124.95 155.605 125.038 155.693 125.09Z" fill="#D5C18F"/>
<path d="M164.329 145.168C164.551 145.298 164.848 145.294 165.041 145.11L170.156 140.766C170.431 140.541 170.452 140.137 170.227 139.857C170.001 139.577 169.602 139.551 169.327 139.776L164.213 144.12C163.938 144.345 163.916 144.749 164.142 145.029C164.208 145.068 164.262 145.129 164.329 145.168Z" fill="#D5C18F"/>
<path d="M155.505 115.978C155.638 116.056 155.771 116.134 155.904 116.212C159.539 118.19 163.57 118.529 167.301 117.206C170.588 116.041 175.211 112.984 178.476 105.122C182.372 95.7293 185.535 84.1851 175.395 78.2535L175.329 78.2145C170.036 75.1477 159.103 76.8305 152.368 88.0076C148.555 94.3307 147.244 100.929 148.683 106.582C149.713 110.66 152.154 114.018 155.505 115.978Z" fill="#0B0E2A"/>
<path d="M174.736 79.2634C169.642 76.3133 159.483 78.5081 153.364 88.6493C146.041 100.76 149.481 111.385 156.441 115.16C163.401 118.934 172.438 116.529 177.358 104.646C182.278 92.7635 182.948 84.0082 174.736 79.2634Z" fill="white"/>
<path d="M174.435 87.4535C172.342 86.2473 169.365 88.0531 167.301 92.8696C165.236 97.6861 166.819 100.55 168.485 101.362C170.128 102.161 173.251 101.15 175.503 95.7315C177.756 90.3132 175.972 88.3389 174.435 87.4535Z" fill="#0B0E2A"/>
<path d="M164.447 74.4619C164.522 74.5706 164.614 74.6609 164.67 74.7515C165.318 75.5659 166.716 75.9337 169.528 76.6508C171.016 77.0358 172.703 77.4369 174.103 77.9507C175.267 78.3759 176.493 79.1838 177.718 79.9552C180.077 81.4807 182.309 82.9164 184.272 81.799C185.378 81.1659 186.149 80.0618 186.428 78.6893C186.821 76.7131 186.197 74.4196 184.711 72.3914C184.655 72.3007 184.6 72.2466 184.544 72.1559C182.283 69.2599 180.949 68.4532 179.414 67.521C179.231 67.4135 179.03 67.2879 178.847 67.1804C175.923 65.3873 169.032 63.8577 165.636 67.255C162.523 70.3571 163.278 72.8865 164.447 74.4619Z" fill="#D5C18F"/>
<path d="M178.22 68.2466C175.77 66.7404 169.404 65.2231 166.449 68.1591C163.495 71.0951 164.835 73.0885 165.594 74.0111C166.353 74.9338 171.077 75.5566 174.514 76.8144C177.951 78.0723 181.532 81.9759 183.673 80.747C185.85 79.5177 185.995 76.0106 183.586 72.9337C181.213 69.8564 179.993 69.3405 178.22 68.2466Z" fill="#FEF8DB"/>
<path d="M204.49 95.0653C205.966 95.3986 207.515 94.8565 208.733 93.5588C210.167 92.0078 210.79 89.8093 210.286 88.0881C209.433 85.1913 208.425 82.8442 206.066 80.1833C203.971 77.8501 200.362 76.169 198.464 75.718C198.388 75.7063 198.338 75.6984 198.262 75.6867C195.699 75.1849 190.573 75.4591 189.551 80.0993C188.688 83.9819 192.282 85.5825 194.905 86.7457C195.927 87.191 196.872 87.6245 197.453 88.0798C198.239 88.7233 198.971 89.7497 199.75 90.8094C201.062 92.656 202.422 94.5359 204.439 95.0575L204.49 95.0653Z" fill="#D5C18F"/>
<path d="M205.153 80.9805C203.147 78.7396 199.499 77.1566 198.019 76.8489C196.539 76.5411 191.605 76.193 190.702 80.3562C189.8 84.5195 195.893 85.2559 198.183 87.1238C200.474 88.9918 202.044 93.1995 204.711 93.874C207.353 94.5445 209.862 90.8912 209.131 88.4046C208.325 85.7237 207.45 83.5276 205.153 80.9805Z" fill="#FEF8DB"/>
</svg>
