<svg width="63" height="71" viewBox="0 0 63 71" fill="none" xmlns="http://www.w3.org/2000/svg">
<path d="M8.58506 21.6045C9.11756 26.8797 10.5225 31.4971 12.6358 34.921C13.2831 35.9822 14.9898 37.9197 17.9031 40.9911L18.9862 42.1043L19.88 40.815C24.5208 34.1012 31.2425 29.2396 39.8527 26.3672L41.2636 25.9056L40.4351 24.2848C40.2777 23.962 40.0483 23.4367 39.7848 22.8633C37.9161 18.6126 34.0385 9.81243 27.4956 11.4656C27.132 11.3622 26.3127 10.5685 25.7402 10.0703C23.8685 8.359 21.061 5.79217 17.4357 6.96151C13.6731 8.19246 13.4398 10.9685 13.5174 12.1456C11.835 12.8369 8.116 14.9429 8.43964 19.8232C8.48351 20.4444 8.53427 21.0245 8.58506 21.6045Z" fill="#D5C18F"/>
<path d="M40.5921 24.6073C40.6708 24.7687 40.7495 24.9301 40.8625 25.1395C40.8797 25.1636 40.8797 25.1636 40.8968 25.1876C42.0472 27.4128 44.5398 32.2339 46.7516 36.4575L47.1351 37.1993L46.0842 37.9118C43.7764 33.5027 41.0065 28.1905 39.8014 25.7869L39.1179 26.2013L45.7304 38.1276L47.1591 37.1821L47.2378 37.3435C48.6656 40.0597 50.3399 43.3253 50.7234 44.067L50.8466 44.3417L50.8541 49.5922L43.1294 66.7314L41.8236 65.3057C38.5335 61.7053 33.368 56.5413 28.3636 51.5525C24.4835 47.6837 21.9263 45.2647 19.0302 42.2173L18.3071 41.3551L18.8165 40.086C23.7702 32.8955 30.2754 28.1881 39.4452 25.1344L40.6435 24.6794L40.5921 24.6073Z" fill="#884E1E"/>
<path d="M17.8423 8.19385C15.0444 9.09993 14.7264 10.9939 14.8108 12.1299C14.8514 12.6447 14.5556 13.1454 14.0544 13.3576C12.4853 14.0043 9.45981 15.7612 9.71584 19.7835C10.0732 25.2198 11.323 30.3826 13.7378 34.2805C14.4022 35.3657 16.2941 37.4613 18.851 40.1342C23.4987 33.3792 30.2206 28.2637 39.4796 25.1827C39.4352 25.0694 39.3667 24.9732 39.3222 24.8599C37.9698 22.1987 34.1499 11.0376 27.7889 12.7424C25.7738 13.272 22.6108 6.64495 17.8423 8.19385Z" fill="#FEF8DB"/>
<path d="M8.9318 24.0756C8.94202 24.1408 8.96935 24.2301 8.97957 24.2953C9.9689 26.3452 11.9533 28.5199 12.9576 29.4717C13.2113 29.7259 13.6197 29.6886 13.8499 29.4521C14.1042 29.1985 14.0669 28.7901 13.8304 28.5599C12.9357 27.7112 11.0198 25.6327 10.1092 23.7441C9.95177 23.4214 9.57099 23.294 9.24822 23.4514C9.03875 23.5644 8.89093 23.8148 8.9318 24.0756Z" fill="#D5C18F"/>
<path d="M26.2358 12.037C26.246 12.1022 26.2733 12.1915 26.3007 12.2807C26.554 12.7889 27.3279 14.2311 27.4851 14.8079C27.5773 15.1409 27.9443 15.3506 28.2842 15.2172C28.6172 15.1249 28.827 14.758 28.6935 14.4181C28.4474 13.6148 27.516 11.8498 27.403 11.6403C27.2456 11.3175 26.8408 11.2072 26.5351 11.3887C26.3428 11.5258 26.212 11.8002 26.2358 12.037Z" fill="#D5C18F"/>
<path d="M13.5474 12.5949C13.5405 12.6361 13.5576 12.6602 13.5678 12.7254C13.5849 12.7494 14.1523 14.665 14.5863 16.2407C14.6786 16.5736 15.0455 16.7834 15.3785 16.6912C15.7115 16.5989 15.9212 16.232 15.829 15.899C15.395 14.3233 14.8105 12.3837 14.7934 12.3596C14.7011 12.0266 14.3342 11.8168 13.9943 11.9503C13.6854 12.0254 13.5134 12.2929 13.5474 12.5949Z" fill="#D5C18F"/>
<path d="M40.8619 25.1399L39.7767 25.8043C41.0059 28.1909 43.7758 33.5031 46.0595 37.9293L47.1105 37.2167L46.727 36.475C44.522 32.2102 42.0054 27.4062 40.8721 25.2051C40.879 25.1639 40.8619 25.1399 40.8619 25.1399Z" fill="#884E1E"/>
<path d="M39.4381 25.176C30.2031 28.2398 23.4811 33.3554 18.8094 40.1275C25.5649 47.1672 36.9555 58.1177 42.7475 64.4664L49.5603 49.3543L49.5625 44.6769C49.2133 43.9833 47.7684 41.243 46.077 37.9534C43.7521 33.5202 40.972 28.1428 39.7428 25.7563C39.6298 25.5469 39.5169 25.3374 39.4381 25.176Z" fill="#FBB26F"/>
<path d="M39.7597 25.7802C37.2942 27.1019 36.5143 30.7386 37.986 34.076C39.5192 37.5508 42.935 39.3942 45.6338 38.1964C45.7952 38.1176 45.9566 38.0389 46.1008 37.9361C43.776 33.503 40.9717 28.1427 39.7597 25.7802Z" fill="#E37B35"/>
</svg>
