<svg width="746" height="113" viewBox="0 0 746 113" fill="none" xmlns="http://www.w3.org/2000/svg">
<path d="M10.25 98.5394C8.05 98.5394 6.35 97.8894 5.15 96.5894C4.05 95.2894 3.5 93.7894 3.5 92.0894C3.5 90.2894 4.05 88.7394 5.15 87.4394C6.35 86.0394 8.05 85.3394 10.25 85.3394C6.65 85.3394 4.2 84.6894 2.9 83.3894C1.7 82.0894 1.7 80.8394 2.9 79.6394C4.2 78.3394 6.65 77.6894 10.25 77.6894C7.45 77.6894 5.3 76.6894 3.8 74.6894C2.4 72.6894 1.7 70.3894 1.7 67.7894C1.7 65.1894 2.4 62.8894 3.8 60.8894C5.3 58.8894 7.45 57.8894 10.25 57.8894C7.25 57.8894 5.25 57.3394 4.25 56.2394C3.25 55.1394 3.25 54.0394 4.25 52.9394C5.25 51.8394 7.25 51.2894 10.25 51.2894C7.75 51.2894 5.85 50.4394 4.55 48.7394C3.35 47.0394 2.75 45.0894 2.75 42.8894C2.75 40.6894 3.35 38.7394 4.55 37.0394C5.85 35.3394 7.75 34.4894 10.25 34.4894C6.45 34.4894 3.9 34.0394 2.6 33.1394C1.3 32.1394 1.3 31.1394 2.6 30.1394C3.9 29.1394 6.45 28.6394 10.25 28.6394C7.95 28.6394 6.2 27.7894 5 26.0894C3.9 24.3894 3.35 22.4394 3.35 20.2394C3.35 18.0394 3.9 16.0894 5 14.3894C6.2 12.6894 7.95 11.8394 10.25 11.8394C8.95 8.9394 8.8 6.6894 9.8 5.08939C10.8 3.4894 12.2 2.8894 14 3.2894C15.9 3.58939 17.5 5.18939 18.8 8.0894C18.8 5.7894 19.6 4.0394 21.2 2.83939C22.9 1.6394 24.8 1.0394 26.9 1.0394C29 1.0394 30.85 1.6394 32.45 2.83939C34.15 4.0394 35 5.7894 35 8.0894C35 5.7894 35.65 4.0894 36.95 2.98939C38.35 1.8894 39.9 1.3394 41.6 1.3394C43.3 1.3394 44.8 1.8894 46.1 2.98939C47.5 4.0894 48.2 5.7894 48.2 8.0894C48.2 5.4894 48.95 3.53939 50.45 2.23939C52.05 0.839394 53.9 0.139394 56 0.139394C58.1 0.139394 59.9 0.839394 61.4 2.23939C63 3.53939 63.8 5.4894 63.8 8.0894C63.8 6.1894 64.5 4.6894 65.9 3.58939C67.4 2.4894 69.2 1.7394 71.3 1.3394C73.4 0.939395 75.5 0.939395 77.6 1.3394C79.7 1.7394 81.45 2.5394 82.85 3.73939C84.25 4.8394 84.95 6.3394 84.95 8.2394C88.95 8.2394 91.6 8.8394 92.9 10.0394C94.2 11.2394 94.2 12.4394 92.9 13.6394C91.6 14.8394 88.95 15.4394 84.95 15.4394C87.55 15.4394 89.5 16.1394 90.8 17.5394C92.1 18.8394 92.75 20.3394 92.75 22.0394C92.75 23.7394 92.1 25.2894 90.8 26.6894C89.5 27.9894 87.55 28.6394 84.95 28.6394C85.45 31.6394 85.05 33.7394 83.75 34.9394C82.45 36.1394 81 36.3894 79.4 35.6894C77.9 34.8894 76.9 32.9894 76.4 29.9894C76.4 32.6894 75.7 34.4894 74.3 35.3894C72.9 36.2894 71.5 36.2894 70.1 35.3894C68.7 34.4894 68 32.6894 68 29.9894C68 31.7894 67.2 33.1394 65.6 34.0394C64.1 34.9394 62.3 35.3894 60.2 35.3894C58.1 35.3894 56.25 34.9394 54.65 34.0394C53.15 33.1394 52.4 31.7894 52.4 29.9894C52.4 32.7894 51.95 34.7394 51.05 35.8394C50.15 36.9394 49.25 37.1394 48.35 36.4394C48.05 37.6394 47.45 38.5894 46.55 39.2894C47.85 40.6894 48.3 42.3894 47.9 44.3894C48.8 44.6894 49.55 45.3394 50.15 46.3394C50.85 47.2394 51.2 48.4894 51.2 50.0894C51.2 47.5894 51.8 45.9394 53 45.1394C54.2 44.2394 55.4 44.2394 56.6 45.1394C57.8 45.9394 58.4 47.5894 58.4 50.0894C58.4 47.9894 59.25 46.4394 60.95 45.4394C62.75 44.3394 64.8 43.7894 67.1 43.7894C69.4 43.7894 71.4 44.3394 73.1 45.4394C74.9 46.4394 75.8 47.9894 75.8 50.0894C77.8 49.0894 79.6 48.9894 81.2 49.7894C82.8 50.5894 84 51.8394 84.8 53.5394C85.7 55.2394 85.95 56.9894 85.55 58.7894C85.15 60.4894 83.95 61.7894 81.95 62.6894C83.35 64.1894 83.95 65.7894 83.75 67.4894C83.55 69.0894 82.85 70.4894 81.65 71.6894C80.45 72.8894 79 73.5894 77.3 73.7894C75.7 73.8894 74.2 73.2394 72.8 71.8394C72.8 74.6394 71.95 76.7894 70.25 78.2894C68.55 79.6894 66.6 80.3894 64.4 80.3894C62.2 80.3894 60.25 79.6894 58.55 78.2894C56.85 76.7894 56 74.6394 56 71.8394C56 74.8394 55.05 77.0894 53.15 78.5894C51.25 79.9894 49.25 80.5894 47.15 80.3894C46.65 81.5894 45.75 82.5894 44.45 83.3894C43.15 84.1894 41.5 84.5394 39.5 84.4394C41.8 84.8394 43.5 85.9894 44.6 87.8894C45.7 89.7894 46.2 91.8894 46.1 94.1894C46 96.4894 45.25 98.4894 43.85 100.189C42.55 101.889 40.6 102.739 38 102.739C38.2 105.039 37.45 106.839 35.75 108.139C34.05 109.439 32.05 110.189 29.75 110.389C27.45 110.589 25.35 110.139 23.45 109.039C21.65 108.039 20.7 106.389 20.6 104.089C20.6 106.689 20.05 108.589 18.95 109.789C17.85 110.989 16.6 111.439 15.2 111.139C13.8 110.839 12.6 109.689 11.6 107.689C10.6 105.589 10.15 102.539 10.25 98.5394ZM123.723 104.239C122.623 105.539 121.273 106.039 119.673 105.739C118.073 105.439 116.573 104.689 115.173 103.489C113.873 102.289 112.973 100.939 112.473 99.4394C111.973 97.8394 112.273 96.4394 113.373 95.2394C111.573 95.9394 110.023 96.0394 108.723 95.5394C107.523 94.9394 106.673 94.0894 106.173 92.9894C105.673 91.7894 105.673 90.5394 106.173 89.2394C106.773 87.9394 107.973 86.9394 109.773 86.2394C107.673 86.4394 106.023 85.9894 104.823 84.8894C103.723 83.7894 103.073 82.4394 102.873 80.8394C102.773 79.2394 103.173 77.7894 104.073 76.4894C105.073 75.1894 106.623 74.4394 108.723 74.2394C106.723 74.2394 105.223 73.4894 104.223 71.9894C103.223 70.4894 102.723 68.7394 102.723 66.7394C102.723 64.7394 103.223 62.9894 104.223 61.4894C105.223 59.9894 106.723 59.2394 108.723 59.2394C106.423 59.2394 104.873 58.7394 104.073 57.7394C103.373 56.7394 103.373 55.7394 104.073 54.7394C104.873 53.7394 106.423 53.2394 108.723 53.2394C106.223 53.2394 104.523 52.5894 103.623 51.2894C102.823 49.9894 102.823 48.6894 103.623 47.3894C104.523 46.0894 106.223 45.4394 108.723 45.4394C106.523 44.9394 105.023 43.9894 104.223 42.5894C103.423 41.1894 103.173 39.7894 103.473 38.3894C103.873 36.8894 104.723 35.7394 106.023 34.9394C107.423 34.0394 109.223 33.8394 111.423 34.3394C111.423 32.5394 112.123 31.1394 113.523 30.1394C115.023 29.0394 116.823 28.3394 118.923 28.0394C121.123 27.6394 123.273 27.6394 125.373 28.0394C127.473 28.3394 129.223 29.0394 130.623 30.1394C132.123 31.1394 132.873 32.5394 132.873 34.3394C134.873 33.1394 136.623 32.9894 138.123 33.8894C139.623 34.7894 140.473 36.1394 140.673 37.9394C140.873 39.6394 139.973 41.0894 137.973 42.2894C139.273 42.2894 140.223 42.8894 140.823 44.0894C141.523 45.2894 141.873 46.6894 141.873 48.2894C141.873 49.8894 141.523 51.2894 140.823 52.4894C140.223 53.6894 139.273 54.2894 137.973 54.2894C139.473 54.2894 140.623 54.9394 141.423 56.2394C142.223 57.5394 142.623 59.0394 142.623 60.7394C142.623 62.4394 142.223 63.9894 141.423 65.3894C140.623 66.6894 139.473 67.3394 137.973 67.3394C139.473 67.2394 140.623 67.7394 141.423 68.8394C142.323 69.9394 142.773 71.2894 142.773 72.8894C142.873 74.3894 142.573 75.6894 141.873 76.7894C143.673 76.5894 145.673 76.9394 147.873 77.8394C150.173 78.7394 151.973 79.8894 153.273 81.2894C153.673 80.1894 154.273 79.2394 155.073 78.4394C155.973 77.5394 156.923 76.9894 157.923 76.7894C156.423 75.9894 155.873 74.7894 156.273 73.1894C156.773 71.5894 158.173 70.7894 160.473 70.7894C159.073 70.7894 157.973 69.8894 157.173 68.0894C156.473 66.2894 156.123 64.2394 156.123 61.9394C156.123 59.5394 156.473 57.4894 157.173 55.7894C157.973 53.9894 159.073 53.0894 160.473 53.0894C158.473 53.0894 157.123 52.5394 156.423 51.4394C155.823 50.3394 155.823 49.2394 156.423 48.1394C157.123 47.0394 158.473 46.4894 160.473 46.4894C158.973 46.2894 157.873 45.5394 157.173 44.2394C156.573 42.9394 156.373 41.4894 156.573 39.8894C156.773 38.2894 157.323 36.9394 158.223 35.8394C159.123 34.6394 160.373 34.1394 161.973 34.3394C161.973 32.1394 162.523 30.4894 163.623 29.3894C164.823 28.2894 166.123 27.7394 167.523 27.7394C169.023 27.7394 170.323 28.2894 171.423 29.3894C172.623 30.4894 173.223 32.1394 173.223 34.3394C173.223 32.0394 173.873 30.5394 175.173 29.8394C176.473 29.0394 177.773 29.0394 179.073 29.8394C180.373 30.5394 181.023 32.0394 181.023 34.3394C181.823 32.8394 182.873 31.9894 184.173 31.7894C185.473 31.5894 186.673 31.8394 187.773 32.5394C188.973 33.1394 189.773 34.0894 190.173 35.3894C190.673 36.5894 190.473 37.9394 189.573 39.4394C191.573 39.4394 193.073 39.9394 194.073 40.9394C195.073 41.9394 195.573 43.1394 195.573 44.5394C195.573 45.8394 195.073 47.0394 194.073 48.1394C193.073 49.1394 191.573 49.6394 189.573 49.6394C192.073 49.6394 193.723 50.3394 194.523 51.7394C195.323 53.0394 195.323 54.3894 194.523 55.7894C193.723 57.1894 192.073 57.8894 189.573 57.8894C191.173 57.8894 192.373 58.7894 193.173 60.5894C193.973 62.2894 194.373 64.2894 194.373 66.5894C194.373 68.8894 193.973 70.9394 193.173 72.7394C192.373 74.4394 191.173 75.2894 189.573 75.2894C191.573 75.2894 193.023 76.0394 193.923 77.5394C194.923 78.9394 195.423 80.5894 195.423 82.4894C195.423 84.3894 194.923 86.0394 193.923 87.4394C193.023 88.8394 191.573 89.5394 189.573 89.5394C190.773 89.8394 191.523 90.8394 191.823 92.5394C192.123 94.1394 192.023 95.9894 191.523 98.0894C191.123 100.089 190.423 101.789 189.423 103.189C188.523 104.589 187.473 105.139 186.273 104.839C186.273 107.439 185.573 109.139 184.173 109.939C182.773 110.839 181.373 110.839 179.973 109.939C178.573 109.139 177.873 107.439 177.873 104.839C177.873 107.339 177.123 108.989 175.623 109.789C174.223 110.689 172.773 110.739 171.273 109.939C169.773 109.139 169.023 107.439 169.023 104.839C168.323 106.939 167.423 108.289 166.323 108.889C165.223 109.489 164.223 109.439 163.323 108.739C162.523 108.039 162.173 106.839 162.273 105.139C161.473 106.739 159.973 107.789 157.773 108.289C155.673 108.789 153.673 108.689 151.773 107.989C149.873 107.189 148.923 105.789 148.923 103.789C149.023 105.189 148.323 106.389 146.823 107.389C145.323 108.289 143.273 108.839 140.673 109.039C138.173 109.239 135.423 108.989 132.423 108.289C129.423 107.589 126.523 106.239 123.723 104.239ZM215.047 94.3394C213.447 94.3394 212.147 93.6394 211.147 92.2394C210.147 90.8394 209.497 89.1394 209.197 87.1394C208.897 85.0394 208.897 82.9394 209.197 80.8394C209.497 78.7394 210.147 76.9894 211.147 75.5894C212.147 74.1894 213.447 73.4894 215.047 73.4894C212.947 73.4894 211.397 72.7394 210.397 71.2394C209.397 69.7394 208.897 67.9894 208.897 65.9894C208.897 63.9894 209.397 62.2394 210.397 60.7394C211.397 59.2394 212.947 58.4894 215.047 58.4894C213.047 58.4894 211.547 57.5894 210.547 55.7894C209.547 53.9894 209.047 51.9394 209.047 49.6394C209.047 47.2394 209.547 45.1394 210.547 43.3394C211.547 41.5394 213.047 40.6394 215.047 40.6394C212.947 40.6394 211.497 40.1394 210.697 39.1394C209.997 38.1394 209.997 37.1394 210.697 36.1394C211.497 35.1394 212.947 34.6394 215.047 34.6394C215.047 33.1394 215.797 31.9894 217.297 31.1894C218.897 30.3894 220.747 29.9894 222.847 29.9894C224.947 29.9894 226.797 30.3394 228.397 31.0394C229.997 31.7394 230.797 32.8394 230.797 34.3394C231.297 32.5394 232.147 31.2894 233.347 30.5894C234.647 29.7894 235.997 29.5394 237.397 29.8394C238.797 30.0394 239.947 30.6894 240.847 31.7894C241.847 32.7894 242.247 34.1394 242.047 35.8394C242.447 34.6394 243.447 33.7394 245.047 33.1394C246.747 32.5394 248.547 32.2894 250.447 32.3894C252.447 32.3894 254.147 32.7394 255.547 33.4394C257.047 34.1394 257.847 35.1894 257.947 36.5894C257.647 34.3894 258.397 32.6394 260.197 31.3394C262.097 30.0394 264.297 29.2394 266.797 28.9394C269.397 28.5394 271.747 28.7894 273.847 29.6894C275.947 30.4894 277.147 31.9394 277.447 34.0394C279.347 34.1394 280.697 35.1394 281.497 37.0394C282.397 38.9394 282.747 41.1394 282.547 43.6394C282.447 46.0394 281.897 48.1894 280.897 50.0894C279.897 51.8894 278.447 52.7394 276.547 52.6394C278.147 54.0394 278.797 55.4394 278.497 56.8394C278.197 58.2394 277.347 59.1894 275.947 59.6894C274.647 60.1894 273.197 59.7394 271.597 58.3394C271.597 59.8394 270.897 61.0394 269.497 61.9394C268.097 62.8394 266.347 63.4394 264.247 63.7394C262.247 63.9394 260.297 63.8394 258.397 63.4394C256.497 63.0394 255.047 62.2894 254.047 61.1894C254.347 62.6894 253.897 63.9894 252.697 65.0894C251.597 66.0894 250.347 66.4394 248.947 66.1394C249.847 67.7394 250.247 69.8394 250.147 72.4394C250.047 74.9394 249.447 77.1894 248.347 79.1894C247.347 81.0894 245.947 81.9894 244.147 81.8894C245.847 81.8894 247.147 82.4894 248.047 83.6894C248.947 84.8894 249.397 86.2894 249.397 87.8894C249.397 89.3894 248.947 90.7394 248.047 91.9394C247.147 93.1394 245.847 93.7394 244.147 93.7394C245.647 94.2394 246.597 95.1894 246.997 96.5894C247.497 97.8894 247.497 99.2894 246.997 100.789C246.597 102.189 245.847 103.339 244.747 104.239C243.647 105.139 242.347 105.339 240.847 104.839C240.847 106.739 239.997 108.139 238.297 109.039C236.597 110.039 234.597 110.539 232.297 110.539C229.997 110.539 227.947 110.039 226.147 109.039C224.447 108.139 223.597 106.739 223.597 104.839C223.597 106.739 223.197 108.089 222.397 108.889C221.597 109.789 220.597 109.939 219.397 109.339C218.297 108.739 217.297 107.239 216.397 104.839C215.597 102.439 215.147 98.9394 215.047 94.3394ZM297.184 94.3394C295.584 94.3394 294.284 93.6394 293.284 92.2394C292.284 90.8394 291.634 89.1394 291.334 87.1394C291.034 85.0394 291.034 82.9394 291.334 80.8394C291.634 78.7394 292.284 76.9894 293.284 75.5894C294.284 74.1894 295.584 73.4894 297.184 73.4894C295.084 73.4894 293.534 72.7394 292.534 71.2394C291.534 69.7394 291.034 67.9894 291.034 65.9894C291.034 63.9894 291.534 62.2394 292.534 60.7394C293.534 59.2394 295.084 58.4894 297.184 58.4894C295.184 58.4894 293.684 57.5894 292.684 55.7894C291.684 53.9894 291.184 51.9394 291.184 49.6394C291.184 47.2394 291.684 45.1394 292.684 43.3394C293.684 41.5394 295.184 40.6394 297.184 40.6394C295.084 40.6394 293.634 40.1394 292.834 39.1394C292.134 38.1394 292.134 37.1394 292.834 36.1394C293.634 35.1394 295.084 34.6394 297.184 34.6394C297.184 33.1394 297.934 31.9894 299.434 31.1894C301.034 30.3894 302.884 29.9894 304.984 29.9894C307.084 29.9894 308.934 30.3394 310.534 31.0394C312.134 31.7394 312.934 32.8394 312.934 34.3394C313.434 32.5394 314.284 31.2894 315.484 30.5894C316.784 29.7894 318.134 29.5394 319.534 29.8394C320.934 30.0394 322.084 30.6894 322.984 31.7894C323.984 32.7894 324.384 34.1394 324.184 35.8394C324.584 34.6394 325.584 33.7394 327.184 33.1394C328.884 32.5394 330.684 32.2894 332.584 32.3894C334.584 32.3894 336.284 32.7394 337.684 33.4394C339.184 34.1394 339.984 35.1894 340.084 36.5894C339.784 34.3894 340.534 32.6394 342.334 31.3394C344.234 30.0394 346.434 29.2394 348.934 28.9394C351.534 28.5394 353.884 28.7894 355.984 29.6894C358.084 30.4894 359.284 31.9394 359.584 34.0394C361.484 34.1394 362.834 35.1394 363.634 37.0394C364.534 38.9394 364.884 41.1394 364.684 43.6394C364.584 46.0394 364.034 48.1894 363.034 50.0894C362.034 51.8894 360.584 52.7394 358.684 52.6394C360.284 54.0394 360.934 55.4394 360.634 56.8394C360.334 58.2394 359.484 59.1894 358.084 59.6894C356.784 60.1894 355.334 59.7394 353.734 58.3394C353.734 59.8394 353.034 61.0394 351.634 61.9394C350.234 62.8394 348.484 63.4394 346.384 63.7394C344.384 63.9394 342.434 63.8394 340.534 63.4394C338.634 63.0394 337.184 62.2894 336.184 61.1894C336.484 62.6894 336.034 63.9894 334.834 65.0894C333.734 66.0894 332.484 66.4394 331.084 66.1394C331.984 67.7394 332.384 69.8394 332.284 72.4394C332.184 74.9394 331.584 77.1894 330.484 79.1894C329.484 81.0894 328.084 81.9894 326.284 81.8894C327.984 81.8894 329.284 82.4894 330.184 83.6894C331.084 84.8894 331.534 86.2894 331.534 87.8894C331.534 89.3894 331.084 90.7394 330.184 91.9394C329.284 93.1394 327.984 93.7394 326.284 93.7394C327.784 94.2394 328.734 95.1894 329.134 96.5894C329.634 97.8894 329.634 99.2894 329.134 100.789C328.734 102.189 327.984 103.339 326.884 104.239C325.784 105.139 324.484 105.339 322.984 104.839C322.984 106.739 322.134 108.139 320.434 109.039C318.734 110.039 316.734 110.539 314.434 110.539C312.134 110.539 310.084 110.039 308.284 109.039C306.584 108.139 305.734 106.739 305.734 104.839C305.734 106.739 305.334 108.089 304.534 108.889C303.734 109.789 302.734 109.939 301.534 109.339C300.434 108.739 299.434 107.239 298.534 104.839C297.734 102.439 297.284 98.9394 297.184 94.3394ZM381.57 89.5394C379.17 89.5394 377.32 88.7394 376.02 87.1394C374.82 85.4394 374.22 83.4894 374.22 81.2894C374.22 78.9894 374.82 77.0394 376.02 75.4394C377.32 73.7394 379.17 72.8894 381.57 72.8894C379.17 72.8894 377.37 72.2394 376.17 70.9394C375.07 69.6394 374.52 68.1894 374.52 66.5894C374.52 64.8894 375.07 63.4394 376.17 62.2394C377.37 60.9394 379.17 60.2894 381.57 60.2894C377.87 60.2894 375.37 59.5394 374.07 58.0394C372.87 56.5394 372.87 55.0394 374.07 53.5394C375.37 52.0394 377.87 51.2894 381.57 51.2894C379.07 51.2894 377.17 50.6894 375.87 49.4894C374.57 48.2894 373.92 46.8894 373.92 45.2894C373.92 43.6894 374.57 42.2894 375.87 41.0894C377.17 39.8894 379.07 39.2894 381.57 39.2894C378.77 39.2894 376.67 38.3894 375.27 36.5894C373.97 34.7894 373.32 32.7394 373.32 30.4394C373.32 28.0394 373.97 25.9394 375.27 24.1394C376.67 22.3394 378.77 21.4394 381.57 21.4394C379.67 20.8394 378.47 19.7394 377.97 18.1394C377.57 16.4394 377.62 14.7394 378.12 13.0394C378.72 11.2394 379.67 9.8394 380.97 8.8394C382.37 7.73939 384.02 7.48939 385.92 8.0894C385.92 4.9894 386.47 2.9394 387.57 1.9394C388.67 0.939398 389.77 0.939398 390.87 1.9394C391.97 2.9394 392.52 4.9894 392.52 8.0894C392.52 6.2894 393.27 4.8394 394.77 3.73939C396.27 2.63939 398.12 1.93939 400.32 1.63939C402.62 1.2394 404.87 1.2394 407.07 1.63939C409.37 1.93939 411.27 2.63939 412.77 3.73939C414.37 4.8394 415.17 6.2894 415.17 8.0894C415.17 4.8894 415.92 2.7894 417.42 1.7894C419.02 0.689396 420.62 0.689396 422.22 1.7894C423.82 2.7894 424.62 4.8894 424.62 8.0894C424.62 5.3894 425.27 3.3894 426.57 2.0894C427.87 0.789394 429.32 0.139394 430.92 0.139394C432.62 0.139394 434.07 0.789394 435.27 2.0894C436.57 3.3894 437.22 5.3894 437.22 8.0894C437.22 6.2894 437.92 4.8394 439.32 3.73939C440.72 2.63939 442.42 1.93939 444.42 1.63939C446.52 1.2394 448.62 1.2394 450.72 1.63939C452.82 1.93939 454.57 2.63939 455.97 3.73939C457.37 4.8394 458.07 6.2894 458.07 8.0894C461.07 8.38939 463.02 9.0394 463.92 10.0394C464.92 10.9394 464.87 11.8394 463.77 12.7394C462.67 13.5394 460.62 13.7894 457.62 13.4894C460.22 13.7894 462.12 14.7394 463.32 16.3394C464.52 17.9394 465.02 19.7394 464.82 21.7394C464.62 23.6394 463.77 25.2894 462.27 26.6894C460.87 27.9894 458.87 28.5394 456.27 28.3394C456.27 31.5394 455.72 33.6894 454.62 34.7894C453.52 35.7894 452.42 35.7894 451.32 34.7894C450.22 33.6894 449.67 31.5394 449.67 28.3394C449.67 31.3394 448.87 33.3894 447.27 34.4894C445.77 35.4894 444.22 35.4894 442.62 34.4894C441.02 33.3894 440.22 31.3394 440.22 28.3394C440.22 29.8394 439.47 31.0394 437.97 31.9394C436.47 32.8394 434.62 33.3894 432.42 33.5894C430.32 33.7894 428.22 33.7394 426.12 33.4394C424.02 33.0394 422.42 32.2894 421.32 31.1894C421.52 32.3894 421.42 33.5394 421.02 34.6394C420.62 35.7394 419.97 36.6894 419.07 37.4894C420.27 38.2894 421.22 39.2894 421.92 40.4894C422.72 41.5894 423.17 42.7894 423.27 44.0894C424.07 42.8894 425.27 42.0894 426.87 41.6894C428.47 41.1894 430.12 41.0394 431.82 41.2394C433.52 41.4394 434.97 42.0394 436.17 43.0394C437.37 43.9394 437.97 45.1894 437.97 46.7894C437.97 44.5894 438.52 42.9394 439.62 41.8394C440.82 40.7394 442.17 40.1894 443.67 40.1894C445.17 40.1894 446.47 40.7394 447.57 41.8394C448.77 42.9394 449.37 44.5894 449.37 46.7894C450.57 43.6894 451.77 41.7894 452.97 41.0894C454.17 40.3894 454.97 40.7394 455.37 42.1394C455.87 43.4394 455.52 45.6394 454.32 48.7394C457.12 48.9394 459.12 49.9394 460.32 51.7394C461.62 53.5394 462.17 55.5394 461.97 57.7394C461.77 59.9394 460.92 61.8394 459.42 63.4394C457.92 64.9394 455.77 65.5894 452.97 65.3894C452.97 66.8894 452.22 68.0894 450.72 68.9894C449.32 69.8894 447.52 70.4894 445.32 70.7894C443.22 71.0894 441.07 71.0894 438.87 70.7894C436.77 70.4894 434.97 69.8894 433.47 68.9894C432.07 68.0894 431.37 66.8894 431.37 65.3894C431.37 67.3894 430.62 68.8394 429.12 69.7394C427.62 70.6394 425.97 70.9894 424.17 70.7894C422.47 70.5894 421.17 69.7894 420.27 68.3894C420.17 69.5894 419.77 70.6394 419.07 71.5394C418.47 72.4394 417.72 73.1394 416.82 73.6394C417.92 74.6394 418.42 75.8394 418.32 77.2394C419.52 77.5394 420.57 78.2394 421.47 79.3394C422.37 80.4394 422.82 81.9394 422.82 83.8394C422.82 82.0394 423.77 80.6894 425.67 79.7894C427.67 78.7894 429.92 78.2894 432.42 78.2894C434.92 78.2894 437.12 78.7894 439.02 79.7894C441.02 80.6894 442.02 82.0394 442.02 83.8394C442.02 80.7394 442.77 78.6894 444.27 77.6894C445.77 76.6894 447.22 76.6894 448.62 77.6894C450.12 78.6894 450.87 80.7394 450.87 83.8394C452.27 81.8394 453.87 80.9394 455.67 81.1394C457.47 81.3394 458.77 82.2394 459.57 83.8394C460.47 85.4394 460.22 87.2394 458.82 89.2394C460.92 90.0394 462.22 91.3894 462.72 93.2894C463.22 95.1894 463.12 97.1394 462.42 99.1394C461.72 101.039 460.52 102.539 458.82 103.639C457.22 104.739 455.37 104.889 453.27 104.089C453.27 106.789 452.67 108.789 451.47 110.089C450.37 111.489 449.07 112.189 447.57 112.189C446.07 112.189 444.77 111.489 443.67 110.089C442.57 108.789 442.02 106.789 442.02 104.089C442.02 106.889 441.17 108.939 439.47 110.239C437.87 111.639 436.02 112.339 433.92 112.339C431.82 112.339 429.92 111.639 428.22 110.239C426.62 108.939 425.82 106.889 425.82 104.089C425.82 106.589 425.17 108.439 423.87 109.639C422.57 110.939 421.02 111.589 419.22 111.589C417.52 111.589 416.02 110.939 414.72 109.639C413.42 108.439 412.77 106.589 412.77 104.089C412.77 106.989 411.92 109.139 410.22 110.539C408.62 112.039 406.77 112.789 404.67 112.789C402.57 112.789 400.67 112.039 398.97 110.539C397.37 109.139 396.57 106.989 396.57 104.089C396.57 106.589 395.77 108.339 394.17 109.339C392.67 110.439 390.92 110.539 388.92 109.639C386.92 108.839 385.17 106.839 383.67 103.639C382.17 100.339 381.47 95.6394 381.57 89.5394ZM505.919 100.639C503.919 101.439 502.319 101.439 501.119 100.639C500.019 99.7394 499.569 98.6394 499.769 97.3394C500.069 95.9394 501.219 94.7894 503.219 93.8894C501.819 94.4894 500.369 94.2394 498.869 93.1394C497.469 92.0394 496.169 90.4894 494.969 88.4894C493.769 86.4894 492.869 84.3394 492.269 82.0394C491.669 79.7394 491.469 77.6894 491.669 75.8894C491.969 74.0894 492.819 72.8894 494.219 72.2894C491.719 73.3894 489.819 73.5894 488.519 72.8894C487.319 72.0894 486.869 70.9894 487.169 69.5894C487.569 68.0894 489.019 66.7894 491.519 65.6894C489.219 66.6894 487.469 66.8394 486.269 66.1394C485.069 65.4394 484.619 64.4394 484.919 63.1394C485.319 61.7394 486.669 60.5894 488.969 59.6894C487.369 60.2894 485.819 60.0394 484.319 58.9394C482.919 57.7394 481.819 56.1894 481.019 54.2894C480.219 52.2894 479.919 50.3894 480.119 48.5894C480.319 46.6894 481.219 45.3894 482.819 44.6894C480.119 45.7894 478.019 45.8394 476.519 44.8394C475.019 43.8394 474.419 42.4894 474.719 40.7894C475.119 38.9894 476.669 37.5394 479.369 36.4394C478.369 33.9394 478.069 32.1394 478.469 31.0394C478.969 29.8394 479.769 29.4894 480.869 29.9894C482.069 30.4894 483.169 31.9394 484.169 34.3394C484.169 32.4394 484.719 31.0394 485.819 30.1394C486.919 29.1394 488.169 28.6394 489.569 28.6394C490.969 28.6394 492.169 29.1394 493.169 30.1394C494.269 31.0394 494.819 32.4394 494.819 34.3394C495.219 32.4394 496.019 31.1394 497.219 30.4394C498.519 29.6394 499.869 29.3894 501.269 29.6894C502.669 29.9894 503.819 30.7394 504.719 31.9394C505.619 33.0394 505.869 34.5894 505.469 36.5894C507.469 35.8894 509.169 36.0394 510.569 37.0394C512.069 38.0394 513.119 39.4394 513.719 41.2394C514.419 43.0394 514.469 44.7894 513.869 46.4894C513.369 48.1894 512.119 49.3894 510.119 50.0894C511.619 49.5894 512.969 49.7894 514.169 50.6894C515.369 51.5894 516.219 52.8394 516.719 54.4394C517.319 56.0394 517.419 57.5894 517.019 59.0894C516.719 60.4894 515.769 61.4394 514.169 61.9394C515.969 61.3394 517.419 61.4394 518.519 62.2394C519.719 63.0394 520.419 64.0894 520.619 65.3894C521.119 65.3894 521.619 65.5394 522.119 65.8394C522.219 64.4394 522.719 63.2894 523.619 62.3894C524.619 61.3894 525.819 61.0894 527.219 61.4894C526.019 61.0894 525.369 60.0894 525.269 58.4894C525.269 56.7894 525.569 54.9894 526.169 53.0894C526.869 51.0894 527.769 49.4394 528.869 48.1394C529.969 46.8394 531.069 46.3894 532.169 46.7894C529.469 45.8894 527.869 44.7394 527.369 43.3394C526.869 41.8394 527.269 40.6894 528.569 39.8894C529.869 39.0894 531.869 39.1394 534.569 40.0394C534.069 38.7394 534.469 37.4894 535.769 36.2894C537.069 35.0894 538.719 34.1394 540.719 33.4394C542.819 32.6394 544.769 32.2894 546.569 32.3894C548.369 32.3894 549.519 33.0394 550.019 34.3394C550.019 32.1394 550.569 30.6894 551.669 29.9894C552.869 29.2894 554.069 29.2894 555.269 29.9894C556.469 30.6894 557.069 32.1394 557.069 34.3394C558.269 34.2394 559.219 34.7394 559.919 35.8394C560.619 36.9394 561.019 38.2394 561.119 39.7394C561.319 41.2394 561.119 42.5894 560.519 43.7894C560.019 44.9894 559.169 45.6394 557.969 45.7394C559.769 46.5394 560.869 47.7394 561.269 49.3394C561.669 50.9394 561.519 52.5394 560.819 54.1394C560.219 55.7394 559.219 56.9894 557.819 57.8894C556.419 58.6894 554.769 58.7394 552.869 58.0394C554.269 58.5394 554.969 59.7394 554.969 61.6394C555.069 63.4394 554.669 65.3894 553.769 67.4894C552.969 69.4894 551.869 71.1394 550.469 72.4394C549.169 73.7394 547.869 74.0894 546.569 73.4894C548.969 74.4894 550.369 75.7394 550.769 77.2394C551.169 78.6394 550.719 79.7394 549.419 80.5394C548.119 81.2394 546.219 81.0894 543.719 80.0894C545.819 80.9894 547.019 82.4894 547.319 84.5894C547.619 86.5894 547.319 88.6894 546.419 90.8894C545.519 93.0894 544.219 94.8394 542.519 96.1394C540.819 97.3394 538.919 97.5394 536.819 96.7394C537.519 97.9394 537.219 99.2894 535.919 100.789C534.719 102.189 533.069 103.439 530.969 104.539C528.969 105.639 527.019 106.289 525.119 106.489C523.219 106.689 521.919 106.139 521.219 104.839C521.219 106.339 520.569 107.489 519.269 108.289C517.969 108.989 516.419 109.189 514.619 108.889C512.819 108.689 511.069 107.939 509.369 106.639C507.769 105.239 506.619 103.239 505.919 100.639ZM607.829 105.889C607.229 107.989 606.129 109.339 604.529 109.939C602.929 110.639 601.229 110.739 599.429 110.239C597.729 109.839 596.329 108.939 595.229 107.539C594.129 106.139 593.879 104.389 594.479 102.289C593.379 103.789 592.079 104.639 590.579 104.839C589.079 104.939 587.679 104.539 586.379 103.639C585.179 102.739 584.379 101.589 583.979 100.189C583.679 98.6894 584.129 97.1394 585.329 95.5394C583.829 96.2394 582.329 95.9394 580.829 94.6394C579.329 93.2394 578.079 91.4394 577.079 89.2394C576.079 86.9394 575.579 84.7894 575.579 82.7894C575.579 80.7894 576.329 79.4394 577.829 78.7394C576.029 78.7394 574.679 77.8894 573.779 76.1894C572.879 74.4894 572.429 72.4894 572.429 70.1894C572.429 67.8894 572.879 65.8894 573.779 64.1894C574.679 62.4894 575.979 61.6394 577.679 61.6394C574.979 60.8394 573.379 59.6394 572.879 58.0394C572.379 56.4394 572.729 55.0894 573.929 53.9894C575.229 52.8894 577.229 52.7394 579.929 53.5394C579.029 52.7394 578.729 51.5894 579.029 50.0894C579.429 48.4894 580.229 46.8394 581.429 45.1394C582.629 43.4394 583.979 41.9394 585.479 40.6394C586.979 39.2394 588.429 38.2394 589.829 37.6394C591.329 37.0394 592.529 37.1394 593.429 37.9394C592.929 36.2394 593.379 34.7394 594.779 33.4394C596.279 32.1394 598.129 31.1894 600.329 30.5894C602.529 29.8894 604.579 29.7394 606.479 30.1394C608.379 30.4394 609.579 31.4394 610.079 33.1394C610.179 31.2394 611.279 29.9394 613.379 29.2394C615.579 28.4394 617.979 28.1394 620.579 28.3394C623.279 28.5394 625.629 29.1894 627.629 30.2894C629.629 31.3894 630.529 32.8894 630.329 34.7894C631.129 32.8894 632.229 31.8894 633.629 31.7894C635.129 31.5894 636.329 32.0394 637.229 33.1394C638.229 34.2394 638.379 35.7394 637.679 37.6394C638.779 36.5394 640.229 36.3894 642.029 37.1894C643.929 37.8894 645.729 39.0894 647.429 40.7894C649.229 42.4894 650.479 44.2894 651.179 46.1894C651.979 48.0894 651.829 49.5894 650.729 50.6894C652.229 50.3894 653.579 50.8894 654.779 52.1894C656.079 53.4894 657.079 55.1894 657.779 57.2894C658.579 59.3894 659.029 61.5894 659.129 63.8894C659.229 66.0894 658.979 68.0394 658.379 69.7394C657.779 71.4394 656.679 72.4394 655.079 72.7394C657.979 74.0394 659.279 75.0394 658.979 75.7394C658.679 76.3394 657.079 75.9894 654.179 74.6894C654.179 75.9894 653.329 76.9894 651.629 77.6894C650.029 78.2894 648.179 78.5894 646.079 78.5894C643.979 78.5894 642.079 78.2894 640.379 77.6894C638.779 76.9894 637.979 75.9894 637.979 74.6894C637.979 76.3894 637.229 77.6894 635.729 78.5894C634.229 79.3894 632.479 79.8394 630.479 79.9394C628.579 79.9394 626.879 79.5394 625.379 78.7394C623.879 77.8394 623.129 76.5894 623.129 74.9894C623.229 76.6894 622.379 78.0894 620.579 79.1894C618.879 80.1894 616.929 80.7894 614.729 80.9894C615.729 82.1894 616.529 83.4894 617.129 84.8894C617.829 86.1894 618.279 87.3894 618.479 88.4894C619.479 87.3894 620.979 86.4394 622.979 85.6394C624.979 84.8394 627.029 84.3394 629.129 84.1394C631.229 83.9394 633.079 84.0894 634.679 84.5894C636.379 84.9894 637.379 85.8894 637.679 87.2894C637.679 85.5894 638.329 84.2894 639.629 83.3894C641.029 82.4894 642.629 82.0394 644.429 82.0394C646.229 82.0394 647.779 82.4894 649.079 83.3894C650.479 84.2894 651.179 85.5894 651.179 87.2894C653.179 87.6894 654.379 88.5394 654.779 89.8394C655.179 91.0394 654.929 92.1394 654.029 93.1394C653.129 94.0394 651.729 94.2894 649.829 93.8894C650.729 95.1894 650.879 96.5394 650.279 97.9394C649.679 99.2394 648.679 100.389 647.279 101.389C645.979 102.289 644.579 102.789 643.079 102.889C641.679 102.989 640.529 102.439 639.629 101.239C640.229 103.139 639.929 104.789 638.729 106.189C637.629 107.589 636.129 108.589 634.229 109.189C632.329 109.789 630.479 109.789 628.679 109.189C626.979 108.689 625.829 107.489 625.229 105.589C625.429 108.289 624.679 110.139 622.979 111.139C621.379 112.139 619.179 112.189 616.379 111.289C613.679 110.489 610.829 108.689 607.829 105.889ZM613.979 63.4394C613.979 61.4394 614.529 60.3394 615.629 60.1394C616.729 59.8394 617.479 60.4394 617.879 61.9394C618.179 61.0394 618.779 60.1894 619.679 59.3894C620.579 58.5894 621.529 58.0394 622.529 57.7394C621.329 56.8394 620.329 55.5394 619.529 53.8394C618.729 52.1394 618.479 50.6394 618.779 49.3394C617.879 49.8394 616.779 50.1394 615.479 50.2394C614.279 50.3394 613.229 50.1894 612.329 49.7894C612.629 50.8894 612.579 52.1894 612.179 53.6894C611.779 55.1894 611.129 56.5394 610.229 57.7394C609.429 58.9394 608.479 59.5894 607.379 59.6894C608.679 59.9894 609.629 60.6894 610.229 61.7894C610.929 62.8894 612.179 63.4394 613.979 63.4394ZM677.586 94.3394C675.986 94.3394 674.686 93.6394 673.686 92.2394C672.686 90.8394 672.036 89.1394 671.736 87.1394C671.436 85.0394 671.436 82.9394 671.736 80.8394C672.036 78.7394 672.686 76.9894 673.686 75.5894C674.686 74.1894 675.986 73.4894 677.586 73.4894C675.486 73.4894 673.936 72.7394 672.936 71.2394C671.936 69.7394 671.436 67.9894 671.436 65.9894C671.436 63.9894 671.936 62.2394 672.936 60.7394C673.936 59.2394 675.486 58.4894 677.586 58.4894C675.586 58.4894 674.086 57.5894 673.086 55.7894C672.086 53.9894 671.586 51.9394 671.586 49.6394C671.586 47.2394 672.086 45.1394 673.086 43.3394C674.086 41.5394 675.586 40.6394 677.586 40.6394C675.486 40.6394 674.036 40.1394 673.236 39.1394C672.536 38.1394 672.536 37.1394 673.236 36.1394C674.036 35.1394 675.486 34.6394 677.586 34.6394C677.586 33.1394 678.336 31.9894 679.836 31.1894C681.436 30.3894 683.286 29.9894 685.386 29.9894C687.486 29.9894 689.336 30.3394 690.936 31.0394C692.536 31.7394 693.336 32.8394 693.336 34.3394C693.836 32.5394 694.686 31.2894 695.886 30.5894C697.186 29.7894 698.536 29.5394 699.936 29.8394C701.336 30.0394 702.486 30.6894 703.386 31.7894C704.386 32.7894 704.786 34.1394 704.586 35.8394C704.986 34.6394 705.986 33.7394 707.586 33.1394C709.286 32.5394 711.086 32.2894 712.986 32.3894C714.986 32.3894 716.686 32.7394 718.086 33.4394C719.586 34.1394 720.386 35.1894 720.486 36.5894C720.186 34.3894 720.936 32.6394 722.736 31.3394C724.636 30.0394 726.836 29.2394 729.336 28.9394C731.936 28.5394 734.286 28.7894 736.386 29.6894C738.486 30.4894 739.686 31.9394 739.986 34.0394C741.886 34.1394 743.236 35.1394 744.036 37.0394C744.936 38.9394 745.286 41.1394 745.086 43.6394C744.986 46.0394 744.436 48.1894 743.436 50.0894C742.436 51.8894 740.986 52.7394 739.086 52.6394C740.686 54.0394 741.336 55.4394 741.036 56.8394C740.736 58.2394 739.886 59.1894 738.486 59.6894C737.186 60.1894 735.736 59.7394 734.136 58.3394C734.136 59.8394 733.436 61.0394 732.036 61.9394C730.636 62.8394 728.886 63.4394 726.786 63.7394C724.786 63.9394 722.836 63.8394 720.936 63.4394C719.036 63.0394 717.586 62.2894 716.586 61.1894C716.886 62.6894 716.436 63.9894 715.236 65.0894C714.136 66.0894 712.886 66.4394 711.486 66.1394C712.386 67.7394 712.786 69.8394 712.686 72.4394C712.586 74.9394 711.986 77.1894 710.886 79.1894C709.886 81.0894 708.486 81.9894 706.686 81.8894C708.386 81.8894 709.686 82.4894 710.586 83.6894C711.486 84.8894 711.936 86.2894 711.936 87.8894C711.936 89.3894 711.486 90.7394 710.586 91.9394C709.686 93.1394 708.386 93.7394 706.686 93.7394C708.186 94.2394 709.136 95.1894 709.536 96.5894C710.036 97.8894 710.036 99.2894 709.536 100.789C709.136 102.189 708.386 103.339 707.286 104.239C706.186 105.139 704.886 105.339 703.386 104.839C703.386 106.739 702.536 108.139 700.836 109.039C699.136 110.039 697.136 110.539 694.836 110.539C692.536 110.539 690.486 110.039 688.686 109.039C686.986 108.139 686.136 106.739 686.136 104.839C686.136 106.739 685.736 108.089 684.936 108.889C684.136 109.789 683.136 109.939 681.936 109.339C680.836 108.739 679.836 107.239 678.936 104.839C678.136 102.439 677.686 98.9394 677.586 94.3394Z" fill="white"/>
</svg>
