<svg width="67" height="59" viewBox="0 0 67 59" fill="none" xmlns="http://www.w3.org/2000/svg">
<path d="M34.6833 8.51634L33.15 7.27879C33.1491 7.27803 33.1481 7.27727 33.1471 7.27651C27.6713 2.99039 23.541 0.300466 16.5502 0.749878C12.3244 1.3775 9.62033 2.60298 6.37138 5.464C3.05461 10.1365 1.26303 14.3325 1.49478 20.0563C3.33567 27.493 7.8901 34.55 13.5666 40.8095C19.2373 47.0626 26.003 52.4925 32.2269 56.6791C33.1689 57.0286 33.6161 57.1928 34.0742 57.3073C34.5133 57.4171 34.9665 57.4823 35.8824 57.607C38.2396 56.0923 40.28 54.5944 42.4272 52.8056L42.4314 52.8022L44.3201 51.2629C44.3203 51.2628 44.3205 51.2626 44.3207 51.2624C53.9434 43.3292 64.5915 33.8447 66.4977 21.0877C66.5273 18.0914 66.278 15.5987 65.5446 13.2813C64.8118 10.966 63.587 8.79867 61.6313 6.46887C58.6125 3.55666 55.6262 1.60952 52.4525 0.853525C49.2878 0.099635 45.8768 0.516193 41.9771 2.4464C39.7221 3.66451 37.6431 4.96962 35.4973 6.39511V8.12726V9.17335L34.6833 8.51634Z" fill="#EC2862" stroke="black"/>
</svg>
