<svg width="134" height="51" viewBox="0 0 134 51" fill="none" xmlns="http://www.w3.org/2000/svg">
<path d="M1 8.5C1 4.63401 4.13401 1.5 8 1.5H126C129.866 1.5 133 4.63401 133 8.5V42.5C133 46.366 129.866 49.5 126 49.5H8C4.13401 49.5 1 46.366 1 42.5V8.5Z" fill="#FFC909"/>
<path d="M1 8.5C1 4.63401 4.13401 1.5 8 1.5H126C129.866 1.5 133 4.63401 133 8.5V42.5C133 46.366 129.866 49.5 126 49.5H8C4.13401 49.5 1 46.366 1 42.5V8.5Z" stroke="#FFC909" stroke-width="2"/>
<path d="M36.032 20.268V27.916C36.032 29.1 35.696 30.012 35.024 30.652C34.3627 31.292 33.4667 31.612 32.336 31.612C31.152 31.612 30.2027 31.276 29.488 30.604C28.7733 29.932 28.416 28.9773 28.416 27.74H31.136C31.136 28.2093 31.232 28.5667 31.424 28.812C31.616 29.0467 31.8933 29.164 32.256 29.164C32.5867 29.164 32.8427 29.0573 33.024 28.844C33.2053 28.6307 33.296 28.3213 33.296 27.916V20.268H36.032ZM42.806 31.628C41.9313 31.628 41.142 31.4413 40.438 31.068C39.7447 30.6947 39.1953 30.1613 38.79 29.468C38.3953 28.7747 38.198 27.964 38.198 27.036C38.198 26.1187 38.4007 25.3133 38.806 24.62C39.2113 23.916 39.766 23.3773 40.47 23.004C41.174 22.6307 41.9633 22.444 42.838 22.444C43.7127 22.444 44.502 22.6307 45.206 23.004C45.91 23.3773 46.4647 23.916 46.87 24.62C47.2753 25.3133 47.478 26.1187 47.478 27.036C47.478 27.9533 47.27 28.764 46.854 29.468C46.4487 30.1613 45.8887 30.6947 45.174 31.068C44.47 31.4413 43.6807 31.628 42.806 31.628ZM42.806 29.26C43.3287 29.26 43.7713 29.068 44.134 28.684C44.5073 28.3 44.694 27.7507 44.694 27.036C44.694 26.3213 44.5127 25.772 44.15 25.388C43.798 25.004 43.3607 24.812 42.838 24.812C42.3047 24.812 41.862 25.004 41.51 25.388C41.158 25.7613 40.982 26.3107 40.982 27.036C40.982 27.7507 41.1527 28.3 41.494 28.684C41.846 29.068 42.2833 29.26 42.806 29.26ZM50.8055 21.644C50.3255 21.644 49.9308 21.5053 49.6215 21.228C49.3228 20.94 49.1735 20.588 49.1735 20.172C49.1735 19.7453 49.3228 19.3933 49.6215 19.116C49.9308 18.828 50.3255 18.684 50.8055 18.684C51.2748 18.684 51.6588 18.828 51.9575 19.116C52.2668 19.3933 52.4215 19.7453 52.4215 20.172C52.4215 20.588 52.2668 20.94 51.9575 21.228C51.6588 21.5053 51.2748 21.644 50.8055 21.644ZM52.1655 22.572V31.5H49.4295V22.572H52.1655ZM60.0883 22.476C61.1336 22.476 61.9656 22.8173 62.5843 23.5C63.2136 24.172 63.5283 25.1 63.5283 26.284V31.5H60.8083V26.652C60.8083 26.0547 60.6536 25.5907 60.3443 25.26C60.0349 24.9293 59.6189 24.764 59.0963 24.764C58.5736 24.764 58.1576 24.9293 57.8483 25.26C57.5389 25.5907 57.3843 26.0547 57.3843 26.652V31.5H54.6483V22.572H57.3843V23.756C57.6616 23.3613 58.0349 23.052 58.5043 22.828C58.9736 22.5933 59.5016 22.476 60.0883 22.476ZM79.8681 31.5H77.1321L72.5561 24.572V31.5H69.8201V20.268H72.5561L77.1321 27.228V20.268H79.8681V31.5ZM86.4154 31.628C85.5407 31.628 84.7514 31.4413 84.0474 31.068C83.354 30.6947 82.8047 30.1613 82.3994 29.468C82.0047 28.7747 81.8074 27.964 81.8074 27.036C81.8074 26.1187 82.01 25.3133 82.4154 24.62C82.8207 23.916 83.3754 23.3773 84.0794 23.004C84.7834 22.6307 85.5727 22.444 86.4474 22.444C87.322 22.444 88.1114 22.6307 88.8154 23.004C89.5194 23.3773 90.074 23.916 90.4794 24.62C90.8847 25.3133 91.0874 26.1187 91.0874 27.036C91.0874 27.9533 90.8794 28.764 90.4634 29.468C90.058 30.1613 89.498 30.6947 88.7834 31.068C88.0794 31.4413 87.29 31.628 86.4154 31.628ZM86.4154 29.26C86.938 29.26 87.3807 29.068 87.7434 28.684C88.1167 28.3 88.3034 27.7507 88.3034 27.036C88.3034 26.3213 88.122 25.772 87.7594 25.388C87.4074 25.004 86.97 24.812 86.4474 24.812C85.914 24.812 85.4714 25.004 85.1194 25.388C84.7674 25.7613 84.5914 26.3107 84.5914 27.036C84.5914 27.7507 84.762 28.3 85.1034 28.684C85.4554 29.068 85.8927 29.26 86.4154 29.26ZM105.855 22.572L103.439 31.5H100.415L99.0069 25.708L97.5509 31.5H94.5429L92.1109 22.572H94.8469L96.1109 28.956L97.6149 22.572H100.511L102.031 28.924L103.279 22.572H105.855Z" fill="#1E1E1E"/>
</svg>
