<svg width="206" height="169" viewBox="0 0 206 169" fill="none" xmlns="http://www.w3.org/2000/svg">
<path d="M81.9982 141.064C85.4474 141.245 89.0269 141.196 92.6203 140.882L93.8972 140.772L94.78 123.938L95.9983 117.055L71.8245 115.788L70.5799 139.519L71.8383 139.763C75.1433 140.439 78.5491 140.883 81.9982 141.064Z" fill="#884E1E"/>
<path d="M82.3956 162.812C88.4391 163.129 93.0271 163.015 96.4839 162.487C98.7196 162.131 100.334 160.088 100.187 157.833C99.712 150.536 95.6572 147.811 93.5764 146.904L93.9846 139.121L92.4905 139.427C89.0165 139.717 82.6954 139.622 82.6954 139.622C79.3936 139.449 75.2787 138.997 72.1196 138.358L70.6579 138.045L69.6762 156.765C69.5912 158.387 70.4557 159.94 71.8941 160.695C73.39 161.483 75.7331 162.463 78.4158 162.604C78.7401 162.621 79.1528 162.642 79.6834 162.67C80.4204 162.709 81.3343 162.757 82.3956 162.812Z" fill="#D5C18F"/>
<path d="M73.2199 117.369L72.1192 138.359C78.8191 139.686 85.6027 139.982 92.49 139.427L93.3094 123.802L94.2394 118.471L73.2199 117.369Z" fill="#FBB26F"/>
<path d="M72.1204 138.329L71.1525 156.784C71.0969 157.845 71.665 158.85 72.5851 159.342C73.9367 160.063 76.0765 160.973 78.4644 161.099C81.0881 161.236 90.0052 161.999 96.2346 161.025C97.7256 160.778 98.8006 159.446 98.7026 157.933C98.1222 149.27 92.0444 147.917 92.0444 147.917L92.4897 139.427C85.6024 139.982 78.8188 139.685 72.1204 138.329Z" fill="#FEF8DB"/>
<path d="M93.0711 162.131C93.4838 162.152 93.8251 161.845 93.8468 161.432C94.2132 154.445 91.6743 151.563 91.592 151.441C91.3127 151.13 90.841 151.106 90.5602 151.386C90.2499 151.666 90.2252 152.137 90.5061 152.418C90.5325 152.479 92.7331 155.048 92.4038 161.327C92.3527 161.738 92.6584 162.109 93.0711 162.131Z" fill="#D5C18F"/>
<path d="M83.7003 162.142C84.113 162.163 84.4543 161.856 84.4759 161.443C84.8423 154.457 82.3034 151.574 82.2212 151.452C81.9418 151.141 81.4701 151.117 81.1893 151.398C80.8791 151.677 80.8543 152.149 81.1352 152.429C81.1632 152.46 83.3622 155.059 83.0329 161.338C82.9803 161.779 83.2875 162.12 83.7003 162.142Z" fill="#D5C18F"/>
<path opacity="0.2" d="M71.0262 130.999L94.4008 131.161L94.9233 121.197L71.6044 119.974L71.0262 130.999Z" fill="#0B0E2A"/>
<path d="M13.2004 39.5941C13.7329 44.8693 15.1378 49.4867 17.2511 52.9106C17.8985 53.9718 19.6052 55.9093 22.5185 58.9808L23.6016 60.0939L24.4954 58.8047C29.1362 52.0908 35.8579 47.2292 44.468 44.3568L45.879 43.8952L45.0505 42.2744C44.893 41.9517 44.6637 41.4263 44.4001 40.8529C42.5315 36.6022 38.6538 27.8021 32.111 29.4552C31.7473 29.3519 30.9281 28.5582 30.3556 28.0599C28.4839 26.3486 25.6764 23.7818 22.0511 24.9512C18.2884 26.1821 18.0552 28.9581 18.1327 30.1353C16.4504 30.8265 12.7313 32.9325 13.055 37.8129C13.0988 38.4341 13.1496 39.0141 13.2004 39.5941Z" fill="#D5C18F"/>
<path d="M45.2074 42.5969C45.2862 42.7583 45.3649 42.9197 45.4779 43.1292C45.495 43.1532 45.495 43.1532 45.5121 43.1772C46.6626 45.4024 49.1551 50.2235 51.367 54.4472L51.7504 55.1889L50.6995 55.9014C48.3918 51.4923 45.6218 46.1801 44.4167 43.7765L43.7333 44.191L50.3458 56.1172L51.7745 55.1718L51.8532 55.3332C53.281 58.0494 54.9553 61.3149 55.3387 62.0566L55.462 62.3313L55.4694 67.5819L47.7448 84.721L46.439 83.2953C43.1488 79.695 37.9833 74.5309 32.979 69.5421C29.0989 65.6734 26.5417 63.2543 23.6455 60.207L22.9224 59.3447L23.4319 58.0756C28.3855 50.8851 34.8908 46.1777 44.0606 43.1241L45.2588 42.669L45.2074 42.5969Z" fill="#884E1E"/>
<path d="M22.4577 26.1835C19.6597 27.0896 19.3417 28.9835 19.4262 30.1195C19.4667 30.6343 19.171 31.135 18.6697 31.3472C17.1007 31.9939 14.0752 33.7508 14.3312 37.7731C14.6885 43.2094 15.9384 48.3722 18.3531 52.2701C19.0176 53.3553 20.9094 55.4509 23.4663 58.1238C28.114 51.3688 34.836 46.2533 44.095 43.1723C44.0505 43.059 43.982 42.9628 43.9376 42.8495C42.5852 40.1883 38.7652 29.0272 32.4042 30.7321C30.3892 31.2616 27.2262 24.6346 22.4577 26.1835Z" fill="#FEF8DB"/>
<path d="M13.5471 42.0652C13.5574 42.1305 13.5847 42.2197 13.5949 42.2849C14.5842 44.3349 16.5686 46.5095 17.573 47.4613C17.8266 47.7155 18.2351 47.6783 18.4653 47.4418C18.7195 47.1881 18.6822 46.7797 18.4457 46.5495C17.5511 45.7008 15.6352 43.6223 14.7246 41.7338C14.5671 41.411 14.1863 41.2836 13.8636 41.4411C13.6541 41.5541 13.5063 41.8044 13.5471 42.0652Z" fill="#D5C18F"/>
<path d="M30.8511 30.0266C30.8614 30.0918 30.8887 30.1811 30.916 30.2703C31.1694 30.7785 31.9432 32.2208 32.1004 32.7975C32.1927 33.1305 32.5597 33.3402 32.8996 33.2068C33.2325 33.1145 33.4423 32.7476 33.3089 32.4077C33.0627 31.6044 32.1314 29.8394 32.0184 29.6299C31.8609 29.3071 31.4561 29.1968 31.1505 29.3783C30.9582 29.5154 30.8274 29.7898 30.8511 30.0266Z" fill="#D5C18F"/>
<path d="M18.1628 30.5845C18.1558 30.6257 18.1729 30.6498 18.1831 30.715C18.2003 30.739 18.7677 32.6546 19.2017 34.2303C19.2939 34.5633 19.6609 34.773 19.9939 34.6808C20.3268 34.5885 20.5366 34.2216 20.4443 33.8886C20.0104 32.3129 19.4259 30.3733 19.4087 30.3493C19.3165 30.0163 18.9496 29.8065 18.6097 29.9399C18.3007 30.015 18.1288 30.2825 18.1628 30.5845Z" fill="#D5C18F"/>
<path d="M45.4773 43.1295L44.3921 43.794C45.6212 46.1805 48.3912 51.4927 50.6749 55.9189L51.7258 55.2063L51.3423 54.4647C49.1374 50.1998 46.6208 45.3958 45.4875 43.1947C45.4944 43.1536 45.4773 43.1295 45.4773 43.1295Z" fill="#884E1E"/>
<path d="M44.0535 43.1656C34.8185 46.2295 28.0965 51.345 23.4247 58.1172C30.1803 65.1568 41.5708 76.1073 47.3629 82.4561L54.1757 67.3439L54.1778 62.6665C53.8286 61.9729 52.3837 59.2326 50.6924 55.943C48.3675 51.5099 45.5873 46.1325 44.3582 43.746C44.2452 43.5365 44.1322 43.327 44.0535 43.1656Z" fill="#FBB26F"/>
<path d="M44.3751 43.7698C41.9095 45.0916 41.1296 48.7283 42.6013 52.0657C44.1346 55.5404 47.5504 57.3839 50.2492 56.186C50.4105 56.1072 50.5719 56.0285 50.7162 55.9257C48.3913 51.4926 45.5871 46.1323 44.3751 43.7698Z" fill="#E37B35"/>
<path d="M60.4581 140.438C63.9073 140.619 67.4868 140.571 71.0802 140.256L72.3571 140.146L73.2399 123.313L74.4581 116.43L50.2843 115.162L49.0397 138.894L50.2981 139.137C53.6031 139.813 57.0089 140.258 60.4581 140.438Z" fill="#884E1E"/>
<path d="M60.8555 162.187C66.8989 162.504 71.4869 162.39 74.9437 161.861C77.1795 161.506 78.7943 159.462 78.6465 157.207C78.1719 149.91 74.1171 147.185 72.0363 146.278L72.4444 138.495L70.9503 138.801C67.4764 139.092 61.1552 138.997 61.1552 138.997C57.8534 138.824 53.7386 138.371 50.5794 137.733L49.1178 137.42L48.136 156.14C48.051 157.761 48.9155 159.314 50.354 160.069C51.8498 160.857 54.1929 161.837 56.8756 161.978C57.1999 161.995 57.6126 162.017 58.1433 162.045C58.8803 162.083 59.7942 162.131 60.8555 162.187Z" fill="#D5C18F"/>
<path d="M51.6797 116.743L50.5789 137.733C57.2788 139.06 64.0624 139.356 70.9497 138.801L71.7692 123.177L72.6991 117.845L51.6797 116.743Z" fill="#FBB26F"/>
<path d="M50.5802 137.703L49.6124 156.158C49.5567 157.219 50.1248 158.224 51.045 158.716C52.3965 159.437 54.5363 160.348 56.9242 160.473C59.548 160.611 68.465 161.374 74.6945 160.4C76.1855 160.153 77.2605 158.82 77.1624 157.307C76.5821 148.645 70.5043 147.291 70.5043 147.291L70.9496 138.801C64.0622 139.356 57.2786 139.059 50.5802 137.703Z" fill="#FEF8DB"/>
<path d="M71.5307 161.505C71.9434 161.527 72.2847 161.22 72.3064 160.807C72.6728 153.82 70.1339 150.938 70.0516 150.815C69.7723 150.505 69.3006 150.48 69.0198 150.761C68.7095 151.041 68.6848 151.512 68.9657 151.793C68.9921 151.854 71.1927 154.423 70.8634 160.702C70.8123 161.113 71.118 161.484 71.5307 161.505Z" fill="#D5C18F"/>
<path d="M62.1618 161.516C62.5745 161.538 62.9158 161.23 62.9375 160.818C63.3039 153.831 60.765 150.949 60.6827 150.826C60.4034 150.516 59.9317 150.491 59.6509 150.772C59.3406 151.051 59.3159 151.523 59.5968 151.804C59.6247 151.835 61.8238 154.433 61.4945 160.713C61.4418 161.153 61.7491 161.494 62.1618 161.516Z" fill="#D5C18F"/>
<path opacity="0.2" d="M49.4859 130.374L72.8605 130.535L73.3831 120.571L50.0641 119.348L49.4859 130.374Z" fill="#0B0E2A"/>
<path d="M177.738 77.3094C180.646 71.9249 185.204 62.7056 188.533 55.9524C190.246 52.4674 191.619 49.7087 192.159 48.6548C192.997 47.0564 194.865 43.1473 196.296 39.5588C198.507 33.9563 198.78 31.356 197.305 30.3167C195.543 29.0675 192.136 30.342 183.29 35.5938C182.873 35.8234 182.522 36.0586 182.242 36.2336C179.399 37.8871 156.769 48.0381 153.496 48.9795C152.872 49.1518 152.407 49.6291 152.261 50.2659C151.999 51.3169 152.484 52.7889 155.799 56.8197C157.694 59.1534 160.37 62.1362 163.789 65.7122C169.579 71.8078 175.513 77.6109 175.573 77.6823L176.895 78.9735L177.738 77.3094Z" fill="#884E1E"/>
<path d="M176.549 76.6518C180.967 68.4541 189.356 51.0933 190.98 48.0378C192.604 44.9824 198.345 32.7498 196.548 31.4447C194.76 30.1801 185.74 35.7748 182.978 37.4088C180.231 39.0175 157.327 49.2777 153.917 50.2736C150.482 51.2542 176.549 76.6518 176.549 76.6518Z" fill="#E37B35"/>
<path d="M175.206 68.8798C178.467 62.2932 182.318 54.8555 183.315 52.9394C184.312 51.0233 188.644 44.1565 187.345 43.2249C186.046 42.2933 177.73 47.2454 176.351 48.0295C174.973 48.8136 162.983 54.1167 160.935 55.1486C158.886 56.1806 167.367 71.6334 167.367 71.6334L175.206 68.8798Z" fill="#FBB26F"/>
<path d="M165.943 51.8853L166.022 51.0324C166.321 46.9395 166.039 39.6483 165.819 34.3126C165.742 32.5929 165.683 31.0813 165.657 30.0152C165.636 29.3634 165.484 23.3811 164.898 17.7282C164.056 9.39879 162.923 7.52857 161.404 7.20303C157.287 6.31123 153.461 13.0659 149.042 20.8505C147.424 23.7424 145.714 26.6881 144.163 28.9334C141.645 32.5414 126.56 55.3148 125.796 56.7486C125.465 57.3502 124.701 58.784 129.643 68.2999L130.256 69.4595L165.943 51.8853Z" fill="#884E1E"/>
<path d="M164.637 50.9513C165.038 45.6224 164.393 34.4361 164.263 30.0815C164.134 25.7269 163.451 9.12686 161.114 8.63508C156.558 7.65845 150.527 22.2683 145.266 29.7965C142.619 33.5744 127.725 56.1224 126.996 57.4695C126.297 58.7889 130.867 67.6028 130.867 67.6028L164.637 50.9513Z" fill="#E37B35"/>
<path d="M158.75 50.5174C159.291 44.8123 160.495 32.8472 160.414 30.6837C160.32 28.2534 160.649 24.6649 158.834 24.3516C157.018 24.0383 152.941 32.0498 151.517 34.6573C150.122 37.2666 143.004 49.7427 141.411 52.6953C139.819 55.6479 156.52 57.7797 156.52 57.7797L158.75 50.5174Z" fill="#FBB26F"/>
<path d="M125.293 40.6597C115.7 41.1443 108.546 41.2288 102.787 41.1648C97.6489 41.0974 93.6401 40.8703 90.043 40.6901C85.0608 40.4224 80.9635 40.1916 76.0156 40.5162C75.3347 40.5468 74.6232 40.6056 73.8808 40.6927C66.4958 41.3585 61.8968 42.525 58.5609 44.5717C55.0739 46.7007 52.963 49.8329 51.6949 54.7141C51.2017 56.614 50.7317 58.6626 50.3159 60.8316C50.279 61.0074 50.2409 61.2126 50.204 61.3883C48.9797 68.0442 48.1214 75.8381 47.7928 83.6838C47.6309 87.5476 47.5858 91.4459 47.6906 95.2914C48.0279 109.813 49.7626 118.484 53.2519 122.648C53.3367 122.74 53.3919 122.831 53.4779 122.894C54.0431 123.509 54.6416 124.036 55.3039 124.448C58.3857 126.35 62.967 127.724 69.7507 128.717C79.0008 130.079 92.3288 130.726 109.411 130.614C133.174 130.457 147.335 130.253 162.645 128.028C170.285 126.9 176.309 124.168 180.507 119.883C184.427 115.881 186.66 110.538 186.976 104.405C187.077 102.696 187.144 101.103 187.207 99.5987C187.25 98.5664 187.292 97.5635 187.333 96.5902C187.442 93.9947 187.499 91.9288 187.581 89.9526L187.647 88.3894C187.707 86.9441 187.757 83.637 187.551 79.4031C187.079 70.1943 185.254 56.6446 178.931 48.8749C174.829 43.8278 169.44 41.2679 160.883 40.289C152.708 39.3557 141.963 39.8215 125.293 40.6597Z" fill="#884E1E"/>
<path d="M125.353 42.051C121.859 42.2296 118.663 42.3617 115.764 42.4471C91.9499 43.1337 86.0722 40.967 74.001 42.0569C60.4465 43.2915 55.2977 46.2965 53.0407 55.0364C50.7541 63.7751 48.7182 78.5223 49.0807 95.261C49.4433 112 51.7138 120.575 56.033 123.267C60.3523 125.959 71.0189 129.479 109.411 129.226C114.554 129.175 119.311 129.168 123.717 129.086C139.12 128.875 150.605 128.381 162.467 126.632C177.718 124.405 185.028 115.64 185.621 104.319C185.727 102.491 185.796 100.84 185.856 99.3944C186.087 94.588 186.157 91.518 186.29 88.3326C186.358 86.0012 186.364 83.0468 186.233 79.8207C185.763 69.8733 183.79 57.0264 177.89 49.7472C169.992 40.0796 157.451 40.4112 125.353 42.051Z" fill="#FBB26F"/>
<path d="M76.5208 41.8668C76.5208 41.8668 80.7669 47.7177 88.7895 48.0537C94.2461 48.2822 96.1646 47.6239 99.7525 45.2036L101.431 42.5261C93.8738 42.3573 83.6895 41.4284 76.5208 41.8668Z" fill="#E37B35"/>
<path d="M90.0135 40.689C93.0798 40.847 98.4774 41.0731 102.58 41.1858L101.43 42.5264C90.9521 42.2648 83.9546 41.4398 76.5204 41.8671L76.4016 40.4734C81.17 40.2004 85.1788 40.4274 90.0135 40.689Z" fill="#884E1E"/>
<path d="M51.7332 60.8615L50.3469 60.8035C49.0587 67.5748 48.161 75.6035 47.8238 83.6556C47.6619 87.5195 47.6168 91.4178 47.7217 95.2632C48.0466 110.08 49.8672 118.813 53.509 122.866L55.7186 123.018C51.6772 120.041 49.467 111.439 49.0822 95.2316C48.7877 81.805 50.0353 69.6544 51.7332 60.8615Z" fill="#884E1E"/>
<path d="M185.828 99.3637L185.416 99.3169C185.563 99.3231 185.71 99.3588 185.828 99.3637Z" fill="#FEF8DB"/>
<path d="M186.205 79.7898C186.145 79.8168 186.083 79.8733 186.022 79.9298L186.203 79.8488C186.203 79.8488 186.204 79.8193 186.205 79.7898Z" fill="#FEF8DB"/>
<path d="M123.844 42.1059C122.01 42.8564 118.733 44.1965 118.413 51.8357C117.853 65.197 123.578 71.0211 123.578 71.0211L130.67 73.8296C130.67 73.8296 158.756 87.5338 170.045 86.0566C178.394 84.9585 183.25 81.8822 186.204 79.7899C185.734 69.8426 183.761 56.9957 177.861 49.7165C169.992 40.0796 157.427 40.2624 123.844 42.1059Z" fill="#E37B35"/>
<path d="M160.637 97.6583C151.704 97.9046 124.487 110.711 123.746 122.055C123.578 124.648 123.569 126.982 123.689 129.055C139.092 128.844 150.577 128.35 162.439 126.601C177.69 124.374 185 115.609 185.593 104.288C185.699 102.46 185.768 100.809 185.828 99.3634C179.837 98.492 168.239 97.4744 160.637 97.6583Z" fill="#E37B35"/>
<path d="M187.55 79.403L186.201 79.8783C186.362 83.0762 186.358 86.0011 186.26 88.3312C186.158 91.4884 186.057 94.5866 185.828 99.3636L187.209 99.5396C187.252 98.5073 187.294 97.5045 187.335 96.5311C187.444 93.9356 187.501 91.8697 187.584 89.8935L187.649 88.3303C187.679 86.9133 187.758 83.6074 187.55 79.403Z" fill="#D5C18F"/>
<path d="M154.642 83.4907L148.255 84.3164L150.362 100.33C154.536 98.7324 158.24 97.7647 160.637 97.6878C168.239 97.4744 179.837 98.5216 185.828 99.393C186.059 94.5866 186.128 91.5166 186.261 88.3311C186.33 85.9998 186.335 83.0454 186.204 79.8193C183.251 81.9116 178.424 84.9891 170.046 86.086C166.244 86.5472 160.534 85.333 154.642 83.4907Z" fill="#FEF8DB"/>
<path d="M168.947 99.2407C170.167 99.7464 181.069 104.016 184.293 99.1001C189.12 91.7666 191.702 86.0007 192.193 81.477C193.028 73.9461 190.118 70.5807 187.544 69.0751C187.455 69.0232 187.344 68.9583 187.256 68.9064C181.161 65.638 175.876 68.6645 170.159 78.7736C163.317 90.8688 168.176 98.463 168.398 98.8009L168.611 99.1036L168.947 99.2407Z" fill="#0B0E2A"/>
<path d="M186.72 69.9589C182.606 67.7305 177.765 67.7794 171.214 79.3613C164.663 90.9433 169.407 98.114 169.407 98.114C169.407 98.114 180.535 102.664 183.323 98.4138C186.11 94.164 190.406 87.1434 191.047 81.3112C191.663 75.5237 190.066 71.7682 186.72 69.9589Z" fill="white"/>
<path d="M183.566 74.0568C182.007 73.0553 178.799 74.2376 177.039 78.0791C175.28 81.9206 175.623 85.804 175.623 85.804C175.623 85.804 180.668 86.6468 183.366 82.137C186.065 77.6271 184.983 74.9451 183.566 74.0568Z" fill="#0B0E2A"/>
<path d="M142.674 114.73C149.419 118.676 147.787 117.959 148.44 118.163C152.097 119.946 155.761 122.238 156.225 121.47C156.351 121.246 156.468 120.988 156.594 120.765C156.727 120.843 156.861 120.921 156.994 120.999C163.162 124.607 165.83 122.396 172.288 117.086C173.783 115.852 175.459 114.456 177.51 112.864C177.678 112.725 177.833 112.608 178 112.468C182.708 108.688 185.047 105.334 185.121 102.229C185.188 99.2387 183.233 97.0559 181.289 95.3246C180.962 95.0147 180.601 94.7141 180.262 94.4265L180.208 94.3652C176.126 90.8787 163.996 82.1492 163.467 81.7801L163.026 81.4629L152.891 86.2257C152.147 86.236 150.874 89.5305 146.568 91.3479C142.193 93.1839 139.459 92.1189 135.726 100.598C135.049 102.161 133.776 100.496 135.056 104.185C136.087 107.164 134.772 109.959 139.793 112.985C140.332 113.39 142.142 114.419 142.674 114.73Z" fill="#D5C18F"/>
<path d="M146.46 89.0864C149.515 85.4086 151.534 84.8671 151.534 84.8671L162.722 82.8885C162.722 82.8885 175.283 91.9 179.365 95.3865C179.726 95.6871 180.075 96.01 180.437 96.3106C184.071 99.5951 186.919 103.696 177.173 111.478C177.018 111.596 176.85 111.735 176.695 111.853C165.659 120.454 164.228 123.923 157.182 119.623L152.864 123.394C152.864 123.394 143.204 118.545 139.295 115.485C135.385 112.426 129.818 103.526 133.971 96.1845C137.111 90.6854 142.466 89.571 146.46 89.0864Z" fill="#FEF8DB"/>
<path d="M171.698 110.978C172.808 111.627 174.774 111.649 176.945 111.048C178.511 110.628 182.361 109.197 184.425 105.445C186.185 102.227 184.862 98.9287 180.891 96.6054C180.38 96.3069 179.978 96.1309 179.823 96.04C178.257 95.1538 170.788 91.9132 168.642 95.7069C166.888 98.8088 167.613 101.965 168.107 104.066C168.73 106.777 169.59 109.745 171.698 110.978Z" fill="#0B0E2A"/>
<path d="M179.295 97.1276C177.453 96.0503 171.186 93.6612 169.684 96.3168C168.182 98.9723 168.811 101.776 169.265 103.793C169.718 105.811 170.471 108.865 172.246 109.903C174.021 110.942 180.699 109.68 183.359 104.821C186.05 100.01 179.295 97.1276 179.295 97.1276Z" fill="#4A423E"/>
<path d="M179.049 97.667C177.858 97.059 174.625 95.2568 173.83 96.6627C173.035 98.0686 175.81 100.524 177.049 101.1C178.288 101.676 181.717 102.138 182.437 100.866C183.156 99.5943 180.073 98.2064 179.049 97.667Z" fill="#FEF8DB"/>
<path d="M156.65 120.826C156.938 120.995 157.343 120.905 157.507 120.615C157.684 120.303 157.601 119.928 157.303 119.724C157.192 119.659 157.059 119.581 156.881 119.477C154.409 118.001 146.913 113.556 148.728 103.926C148.803 103.584 148.559 103.233 148.22 103.154C147.881 103.074 147.536 103.318 147.461 103.66C146.605 108.149 147.537 112.139 150.194 115.535C152.326 118.238 154.954 119.805 156.228 120.58C156.406 120.684 156.539 120.762 156.65 120.826Z" fill="#D5C18F"/>
<path d="M142.693 105.09C142.893 105.206 143.134 105.199 143.346 105.085C147.65 102.435 150.686 105.994 150.804 106.151C151.029 106.432 151.428 106.457 151.703 106.232C151.978 106.007 152 105.604 151.774 105.323C151.743 105.275 147.922 100.753 142.672 103.978C142.366 104.155 142.287 104.555 142.465 104.867C142.506 104.95 142.605 105.038 142.693 105.09Z" fill="#D5C18F"/>
<path d="M151.329 125.168C151.551 125.298 151.848 125.294 152.041 125.11L157.156 120.766C157.431 120.541 157.452 120.137 157.227 119.857C157.001 119.577 156.602 119.551 156.327 119.776L151.213 124.12C150.938 124.345 150.916 124.749 151.142 125.029C151.208 125.068 151.262 125.129 151.329 125.168Z" fill="#D5C18F"/>
<path d="M142.505 95.9784C142.638 96.0563 142.771 96.1341 142.904 96.212C146.539 98.1901 150.57 98.5288 154.301 97.2064C157.588 96.0408 162.211 92.9835 165.476 85.1224C169.372 75.7293 172.535 64.1851 162.395 58.2535L162.329 58.2145C157.036 55.1477 146.103 56.8305 139.368 68.0076C135.555 74.3307 134.244 80.9293 135.683 86.5823C136.713 90.6599 139.154 94.0185 142.505 95.9784Z" fill="#0B0E2A"/>
<path d="M161.736 59.2634C156.642 56.3133 146.483 58.5081 140.364 68.6493C133.041 80.76 136.481 91.385 143.441 95.1595C150.401 98.9341 159.438 96.529 164.358 84.6462C169.278 72.7635 169.948 64.0082 161.736 59.2634Z" fill="white"/>
<path d="M161.435 67.4535C159.342 66.2473 156.365 68.0531 154.301 72.8696C152.236 77.6861 153.819 80.5503 155.485 81.3622C157.128 82.1612 160.251 81.1497 162.503 75.7315C164.756 70.3132 162.972 68.3389 161.435 67.4535Z" fill="#0B0E2A"/>
<path d="M151.447 54.4619C151.522 54.5706 151.614 54.6609 151.67 54.7515C152.318 55.5659 153.716 55.9337 156.528 56.6508C158.016 57.0358 159.703 57.4369 161.103 57.9507C162.267 58.3759 163.493 59.1838 164.718 59.9552C167.077 61.4807 169.309 62.9164 171.272 61.799C172.378 61.1659 173.149 60.0618 173.428 58.6893C173.821 56.7131 173.197 54.4196 171.711 52.3914C171.655 52.3007 171.6 52.2466 171.544 52.1559C169.283 49.2599 167.949 48.4532 166.414 47.521C166.231 47.4135 166.03 47.2879 165.847 47.1804C162.923 45.3873 156.032 43.8577 152.636 47.255C149.523 50.3571 150.278 52.8865 151.447 54.4619Z" fill="#D5C18F"/>
<path d="M165.22 48.2466C162.77 46.7404 156.404 45.2231 153.449 48.1591C150.495 51.0951 151.835 53.0885 152.594 54.0111C153.353 54.9338 158.077 55.5566 161.514 56.8144C164.951 58.0723 168.532 61.9759 170.673 60.747C172.85 59.5177 172.995 56.0106 170.586 52.9337C168.213 49.8564 166.993 49.3405 165.22 48.2466Z" fill="#FEF8DB"/>
<path d="M191.49 75.0653C192.966 75.3986 194.515 74.8565 195.733 73.5588C197.167 72.0078 197.79 69.8093 197.286 68.0881C196.433 65.1913 195.425 62.8442 193.066 60.1833C190.971 57.8501 187.362 56.169 185.464 55.718C185.388 55.7063 185.338 55.6984 185.262 55.6867C182.699 55.1849 177.573 55.4591 176.551 60.0993C175.688 63.9819 179.282 65.5825 181.905 66.7457C182.927 67.191 183.872 67.6245 184.453 68.0798C185.239 68.7233 185.971 69.7497 186.75 70.8094C188.062 72.656 189.422 74.5359 191.439 75.0575L191.49 75.0653Z" fill="#D5C18F"/>
<path d="M192.153 60.9805C190.147 58.7396 186.499 57.1566 185.019 56.8489C183.539 56.5411 178.605 56.193 177.702 60.3562C176.8 64.5195 182.893 65.2559 185.183 67.1238C187.474 68.9918 189.044 73.1995 191.711 73.874C194.353 74.5445 196.862 70.8912 196.131 68.4046C195.325 65.7237 194.45 63.5276 192.153 60.9805Z" fill="#FEF8DB"/>
</svg>
