<svg width="50" height="50" viewBox="0 0 50 50" fill="none" xmlns="http://www.w3.org/2000/svg">
<rect width="50" height="50" rx="25" fill="white"/>
<path d="M38.9467 16.9999C37.92 17.4666 36.8133 17.7733 35.6667 17.9199C36.84 17.2133 37.7467 16.0933 38.1733 14.7466C37.0667 15.4133 35.84 15.8799 34.5467 16.1466C33.4933 14.9999 32.0133 14.3333 30.3333 14.3333C27.2 14.3333 24.64 16.8933 24.64 20.0533C24.64 20.5066 24.6933 20.9466 24.7867 21.3599C20.04 21.1199 15.8133 18.8399 13 15.3866C12.5067 16.2266 12.2267 17.2133 12.2267 18.2533C12.2267 20.2399 13.2267 21.9999 14.7733 22.9999C13.8267 22.9999 12.9467 22.7333 12.1733 22.3333V22.3733C12.1733 25.1466 14.1467 27.4666 16.76 27.9866C15.9211 28.2172 15.0401 28.2491 14.1867 28.0799C14.5488 29.2166 15.2581 30.2111 16.2147 30.9238C17.1713 31.6365 18.3273 32.0315 19.52 32.0533C17.4982 33.6539 14.992 34.5191 12.4133 34.5066C11.96 34.5066 11.5067 34.4799 11.0533 34.4266C13.5867 36.0532 16.6 36.9999 19.8267 36.9999C30.3333 36.9999 36.1067 28.2799 36.1067 20.7199C36.1067 20.4666 36.1067 20.2266 36.0933 19.9733C37.2133 19.1733 38.1733 18.1599 38.9467 16.9999Z" fill="#2287AA"/>
</svg>
